<?xml version="1.0" encoding="UTF-8"?>
<svg version="1.1" xmlns="http://www.w3.org/2000/svg" width="989" height="360">
<path d="M0 0 C3.95214546 3.27943985 7.66669013 6.63234392 11.25 10.3125 C16.18464729 15.29707627 21.50637255 19.64938996 27 24 C28.09557469 24.88607297 29.19060865 25.77281485 30.28515625 26.66015625 C50.25000655 42.73963149 72.33849005 55.30093096 95.63378906 65.91992188 C97.74975413 66.88577304 99.85594392 67.86993101 101.9609375 68.859375 C124.4381084 79.24677482 148.65403078 86.13000286 172.6875 91.84765625 C173.96834473 92.15558105 175.24918945 92.46350586 176.56884766 92.78076172 C179.05979564 93.37417935 181.55422324 93.9532206 184.05224609 94.51611328 C185.73954834 94.91612549 185.73954834 94.91612549 187.4609375 95.32421875 C188.45915527 95.55197998 189.45737305 95.77974121 190.48583984 96.0144043 C193.44110404 97.17292067 194.46626632 98.25022993 196 101 C195.78697206 103.76936321 195.05179562 105.87374818 194 108.4375 C192.87559142 111.31879699 192.42059402 113.93567216 192 117 C191.86078125 117.63164062 191.7215625 118.26328125 191.578125 118.9140625 C190.79175193 122.98747502 190.83963399 125.34350819 192.9375 129 C193.618125 129.99 194.29875 130.98 195 132 C195.99 132 196.98 132 198 132 C197.34 131.29875 196.68 130.5975 196 129.875 C193.63505554 126.47539234 193.32431309 125.05412149 194 121 C196 118.125 196 118.125 198 116 C197.67 115.67 197.34 115.34 197 115 C196.26477431 109.8534202 197.76388387 107.30142004 200.7109375 103.3203125 C201.34902344 102.66675781 201.34902344 102.66675781 202 102 C202.66 102 203.32 102 204 102 C204.33 101.01 204.66 100.02 205 99 C206.85546875 97.4296875 206.85546875 97.4296875 209.1875 95.875 C209.94417969 95.35679688 210.70085937 94.83859375 211.48046875 94.3046875 C220.46543089 89.65200943 232.66128497 91.54212738 242.05078125 93.953125 C249.21741851 96.49704392 255.31428285 100.3856329 261.5 104.75 C262.22703125 105.25660156 262.9540625 105.76320313 263.703125 106.28515625 C265.47203595 107.51873889 267.23649663 108.75869908 269 110 C269.40109985 109.17943115 269.40109985 109.17943115 269.81030273 108.34228516 C271.86885904 104.56084818 273.43823923 101.72711667 277.66015625 100.3359375 C279.11991597 99.98223559 280.58859771 99.6641635 282.0625 99.375 C282.88121582 99.18591064 283.69993164 98.99682129 284.54345703 98.80200195 C287.35545427 98.16375768 290.17512435 97.57847756 293 97 C295.15254299 96.54912726 297.30487867 96.09726387 299.45703125 95.64453125 C300.58238281 95.40782715 301.70773437 95.17112305 302.8671875 94.92724609 C304.02476562 94.68312988 305.18234375 94.43901367 306.375 94.1875 C307.55964844 93.93822754 308.74429687 93.68895508 309.96484375 93.43212891 C347.87525913 85.32948793 385.27275299 72.32011966 419 53 C419.71140137 52.59346191 420.42280273 52.18692383 421.15576172 51.76806641 C440.23184026 40.74792053 457.82028714 27.52086383 473.83203125 12.3984375 C474.78372192 11.50137085 474.78372192 11.50137085 475.75463867 10.58618164 C476.97195638 9.43178754 478.18218372 8.26985487 479.3840332 7.09936523 C482.20321023 4.40827591 484.16622929 2.72353784 488 2 C486.83782165 20.98224642 476.25276281 40.12956389 465 55 C464.38769531 55.8353125 463.77539062 56.670625 463.14453125 57.53125 C448.57014767 76.67372396 429.27349254 91.06721148 408 102 C407.28585937 102.36883301 406.57171875 102.73766602 405.8359375 103.11767578 C392.97915704 109.7249479 392.97915704 109.7249479 387 112 C406.42476881 109.57928413 425.00608132 105.29157803 443.80639648 99.87963867 C444.67466064 99.6344751 445.5429248 99.38931152 446.4375 99.13671875 C447.19933594 98.91717529 447.96117187 98.69763184 448.74609375 98.47143555 C451.21783421 97.95443697 453.48174349 97.91922259 456 98 C454.66420352 100.97636205 453.20765397 103.03951858 450.875 105.3125 C450.06675781 106.11107422 450.06675781 106.11107422 449.2421875 106.92578125 C436.02546024 119.15240525 422.03899089 129.77065846 406 138 C405.34797607 138.3388623 404.69595215 138.67772461 404.02416992 139.02685547 C399.58640418 141.29759019 395.109769 143.26485541 390.4375 145 C389.74769043 145.2563623 389.05788086 145.51272461 388.34716797 145.77685547 C375.56876441 150.42116231 362.25924252 153.12202488 349 156 C361.375 159.465 361.375 159.465 374 163 C374 163.99 374 164.98 374 166 C370.71031008 166.96520574 367.41791312 167.92085401 364.125 168.875 C363.2071875 169.14441406 362.289375 169.41382813 361.34375 169.69140625 C345.22912007 174.34422193 329.67978831 175.17978215 313 175 C314.52691602 178.05383204 316.95216256 178.38086503 320.0625 179.625 C321.71958984 180.29402344 321.71958984 180.29402344 323.41015625 180.9765625 C324.26480469 181.31429687 325.11945313 181.65203125 326 182 C326 183.32 326 184.64 326 186 C322.22100071 187.25966643 318.55805611 187.34341356 314.61328125 187.53515625 C313.79627243 187.57813339 312.97926361 187.62111053 312.13749695 187.66539001 C309.52935056 187.80168311 306.92095008 187.93216151 304.3125 188.0625 C302.54359996 188.15391393 300.77471943 188.24570621 299.00585938 188.33789062 C294.67078704 188.56298376 290.33547782 188.78286263 286 189 C287.98 190.65 289.96 192.3 292 194 C291.67 194.99 291.34 195.98 291 197 C285.06 197.33 279.12 197.66 273 198 C273.99 200.64 274.98 203.28 276 206 C273.03 205.67 270.06 205.34 267 205 C268.08376015 223.85742669 276.54368376 236.55240216 288.82006836 250.44458008 C290 252 290 252 291 255 C284.02322841 255.22874661 277.84574658 254.38648032 271 253 C271 260.26 271 267.52 271 275 C266 276 266 276 263.90234375 274.9609375 C260.14263295 271.92626039 256.70951668 269.06427502 254 265 C254 264.34 254 263.68 254 263 C253.34 263 252.68 263 252 263 C251.87753906 264.00160156 251.75507813 265.00320313 251.62890625 266.03515625 C251.07030321 269.94537754 250.05640242 273.64766923 248.9375 277.4375 C248.57527344 278.67371094 248.21304688 279.90992188 247.83984375 281.18359375 C247.56269531 282.11300781 247.28554688 283.04242188 247 284 C242.44489232 283.45064028 242.44489232 283.45064028 240.48828125 281.46875 C237.48429941 276.43882692 235.89790336 271.78946645 235 266 C234.34 266 233.68 266 233 266 C231.6320647 267.46490111 231.6320647 267.46490111 230.25 269.3125 C227.50870243 272.60874318 225.13038569 274.56334411 221 276 C219.68 275.67 218.36 275.34 217 275 C217 267.74 217 260.48 217 253 C215.370625 253.33 213.74125 253.66 212.0625 254 C206.93464568 254.94320636 202.2029294 255.17058785 197 255 C196.67 254.34 196.34 253.68 196 253 C196.89301656 251.93513145 197.7895947 250.87324959 198.6875 249.8125 C199.18636719 249.22082031 199.68523437 248.62914062 200.19921875 248.01953125 C202 246 202 246 204.453125 243.6484375 C214.74989042 232.94106487 219.28150772 219.42629045 221 205 C218.36 205.66 215.72 206.32 213 207 C212 204 212 204 215 197 C208.4 197 201.8 197 195 197 C195 196.01 195 195.02 195 194 C196.53125 192.61328125 196.53125 192.61328125 198.5 191.3125 C199.1496875 190.87550781 199.799375 190.43851563 200.46875 189.98828125 C200.9740625 189.66214844 201.479375 189.33601562 202 189 C195.0410825 188.395436 188.11143419 187.98448832 181.12890625 187.81640625 C179.9169458 187.78409912 178.70498535 187.75179199 177.45629883 187.71850586 C174.99417301 187.65638912 172.53171204 187.60633418 170.0690918 187.56860352 C168.92738525 187.53822998 167.78567871 187.50785645 166.609375 187.4765625 C165.57780273 187.45674316 164.54623047 187.43692383 163.48339844 187.41650391 C162.66387695 187.27905762 161.84435547 187.14161133 161 187 C160.34 186.01 159.68 185.02 159 184 C159.83144531 183.59007812 160.66289062 183.18015625 161.51953125 182.7578125 C162.60621094 182.21898437 163.69289062 181.68015625 164.8125 181.125 C165.89144531 180.59132812 166.97039062 180.05765625 168.08203125 179.5078125 C171.07838265 178.02778861 171.07838265 178.02778861 174 176 C173.24195068 175.96559814 172.48390137 175.93119629 171.70288086 175.89575195 C158.39845724 175.24873746 145.29106685 174.4853893 132.25 171.625 C131.34241943 171.42817627 130.43483887 171.23135254 129.49975586 171.02856445 C123.66603373 169.65460744 118.38543091 167.62077892 113 165 C116.17014825 161.40561223 119.77494493 160.87431044 124.3125 159.9375 C125.80917062 159.61595472 127.30527893 159.29177973 128.80078125 158.96484375 C129.46247314 158.8268335 130.12416504 158.68882324 130.8059082 158.54663086 C133.5933298 157.85217921 136.28410104 156.93226568 139 156 C138.23034912 155.84442627 137.46069824 155.68885254 136.66772461 155.52856445 C105.86227406 149.25231378 78.40359012 140.1970438 53.57275391 120.25976562 C52.05158135 119.04131632 50.51623458 117.84062832 48.98046875 116.640625 C35.2483726 105.74511779 35.2483726 105.74511779 33 99 C38.45849508 99.62185387 43.77453355 100.4869017 49.14453125 101.63671875 C49.90446884 101.79682938 50.66440643 101.95694 51.44737244 102.12190247 C53.90313869 102.64041466 56.35782883 103.16383044 58.8125 103.6875 C60.51005812 104.04703096 62.20764955 104.40640471 63.90527344 104.765625 C75.33799746 107.19092141 86.75438408 109.68487525 98.15161133 112.2722168 C99.67757935 112.61700073 99.67757935 112.61700073 101.234375 112.96875 C102.11319336 113.16919922 102.99201172 113.36964844 103.89746094 113.57617188 C105.96928875 114.06586814 105.96928875 114.06586814 108 114 C107.23558594 113.72027344 106.47117187 113.44054687 105.68359375 113.15234375 C81.36326743 104.05051284 55.01437168 91.25960474 37 72 C37 71.34 37 70.68 37 70 C36.42507812 69.75636719 35.85015625 69.51273437 35.2578125 69.26171875 C19.82638222 60.63827242 9.83547954 36.54814157 4.25 20.875 C3.95585205 20.05169189 3.6617041 19.22838379 3.35864258 18.38012695 C1.41271143 12.72379596 -0.30620479 6.9603316 -1 1 C-0.67 0.67 -0.34 0.34 0 0 Z M231 101 C231 101.33 231 101.66 231 102 C233.31 102 235.62 102 238 102 C238 101.67 238 101.34 238 101 C235.69 101 233.38 101 231 101 Z M212 108 C210.78530942 110.56396175 210.78530942 110.56396175 210 113 C209.01 113.495 209.01 113.495 208 114 C211.73487777 113.5020163 213.81237635 113.12508244 217 111 C217.0825 110.360625 217.165 109.72125 217.25 109.0625 C218 107 218 107 221.25 105.3125 C224.20834564 104.27707902 226.91313706 103.46770651 230 103 C230 102.67 230 102.34 230 102 C223.07284991 101.07637999 217.48530867 103.80642239 212 108 Z M203.25 124.8125 C201.70666598 127.51333454 201.34887813 129.92987245 201 133 C201.66 133 202.32 133 203 133 C203.2475 131.906875 203.495 130.81375 203.75 129.6875 C205 126 205 126 206.5625 124.0625 C210.38392092 122.39675242 213.90480932 122.37325777 218 123 C223.42560106 125.55924578 225.41165923 128.82331846 228 134 C229.21699956 131.12345559 229.00071999 130.00203291 227.9375 127 C225.58119612 123.35152947 223.93932621 121.86222694 220 120 C213.11779692 119.01840373 208.19771857 119.68807719 203.25 124.8125 Z M229 134 C229 135.65 229 137.3 229 139 C229.33 139 229.66 139 230 139 C230 137.35 230 135.7 230 134 C229.67 134 229.34 134 229 134 Z " fill="#727272" transform="translate(27,22)"/>
<path d="M0 0 C-1.01101759 4.53720323 -2.96442879 8.50039843 -4.9375 12.6875 C-5.47793945 13.8640918 -5.47793945 13.8640918 -6.02929688 15.06445312 C-6.37927734 15.81017578 -6.72925781 16.55589844 -7.08984375 17.32421875 C-7.40816162 18.00572998 -7.72647949 18.68724121 -8.05444336 19.3894043 C-9 21 -9 21 -11 22 C-12.89170797 21.05414602 -14.78112854 20.10332424 -16.65625 19.125 C-23.21505291 15.97677461 -29.74199811 14.27419981 -37 15 C-40.79781191 16.53413413 -40.79781191 16.53413413 -44 19 C-44.23075082 20.34747084 -44.41153063 21.70377565 -44.5625 23.0625 C-44.706875 24.361875 -44.85125 25.66125 -45 27 C-44.4946875 27.25265625 -43.989375 27.5053125 -43.46875 27.765625 C-41.48958333 28.75520833 -39.51041667 29.74479167 -37.53125 30.734375 C-36.88365723 31.05784912 -36.23606445 31.38132324 -35.56884766 31.71459961 C-34.16123352 32.41907112 -32.75469619 33.12569742 -31.34912109 33.83422852 C-28.12927032 35.45429973 -24.9102214 37.04113985 -21.6328125 38.54296875 C-12.26383698 42.88676649 -5.30944664 48.84073832 1 57 C1.03758423 55.9627478 1.03758423 55.9627478 1.07592773 54.90454102 C1.19152161 51.79032134 1.31441242 48.67643211 1.4375 45.5625 C1.47681641 44.47388672 1.51613281 43.38527344 1.55664062 42.26367188 C1.59853516 41.22919922 1.64042969 40.19472656 1.68359375 39.12890625 C1.73858032 37.69140015 1.73858032 37.69140015 1.79467773 36.22485352 C2 34 2 34 3 33 C4.76859193 32.90053547 6.54111451 32.86919783 8.3125 32.8671875 C9.38757813 32.86589844 10.46265625 32.86460937 11.5703125 32.86328125 C12.70210937 32.86714844 13.83390625 32.87101562 15 32.875 C16.13179687 32.87113281 17.26359375 32.86726563 18.4296875 32.86328125 C19.50476563 32.86457031 20.57984375 32.86585938 21.6875 32.8671875 C22.68136719 32.86831543 23.67523437 32.86944336 24.69921875 32.87060547 C27 33 27 33 28 34 C28.15620555 35.41327947 28.25056173 36.8335459 28.31640625 38.25390625 C28.37924805 39.53491211 28.37924805 39.53491211 28.44335938 40.84179688 C28.48267578 41.73962891 28.52199219 42.63746094 28.5625 43.5625 C28.60568359 44.46419922 28.64886719 45.36589844 28.69335938 46.29492188 C28.79978142 48.52978485 28.90179988 50.76476308 29 53 C29.34063477 52.4529541 29.68126953 51.9059082 30.03222656 51.34228516 C30.48049805 50.62347168 30.92876953 49.9046582 31.390625 49.1640625 C32.05626465 48.09599365 32.05626465 48.09599365 32.73535156 47.00634766 C37.90976946 38.79720359 45.08133699 33.90527108 54.46484375 31.46875 C63.59283782 29.7809853 71.96828727 31.28287512 80.125 35.6875 C80.74375 36.120625 81.3625 36.55375 82 37 C82.66 35.68 83.32 34.36 84 33 C92.25 33 100.5 33 109 33 C109.09067872 43.11032893 109.16393285 53.22038396 109.20724869 63.33102894 C109.22804712 68.02674892 109.25622172 72.72217419 109.30175781 77.41772461 C109.34549381 81.95650278 109.36919522 86.49499901 109.37950897 91.03397179 C109.38685087 92.7581901 109.40118683 94.4823945 109.42292023 96.20649147 C109.56354951 107.8340463 109.13170017 118.7904059 101.59765625 128.375 C92.27682136 137.85536018 80.50008284 141.06775585 67.5 141.25 C54.79978687 141.11589004 44.22142961 138.9620588 34.93359375 130.0078125 C31.55287886 126.38805716 29.69360065 124.0025947 29 119 C31.55886504 117.67997444 34.12167068 116.36886218 36.6875 115.0625 C37.40873047 114.68931641 38.12996094 114.31613281 38.87304688 113.93164062 C46.41331178 110.10986252 46.41331178 110.10986252 50 110 C51.625 111.1796875 51.625 111.1796875 53 112.875 C55.46884356 115.89091685 57.12830084 116.53155826 61 117 C68.46635313 117.62050074 73.92459295 117.62259232 80 113 C82.05925681 109.91111478 82.2390374 109.29064073 82.125 105.8125 C82.08375 104.554375 82.0425 103.29625 82 102 C81.21238281 102.28875 80.42476562 102.5775 79.61328125 102.875 C68.34536004 106.71542758 58.17805553 107.7051161 46.859375 103.453125 C38.29762738 99.10207293 33.05689361 92.51947658 29 84 C28.67 90.27 28.34 96.54 28 103 C21.23828269 104.12695288 21.23828269 104.12695288 17.80078125 104.1328125 C17.06666016 104.13410156 16.33253906 104.13539063 15.57617188 104.13671875 C14.82916016 104.13285156 14.08214844 104.12898438 13.3125 104.125 C12.55388672 104.12886719 11.79527344 104.13273437 11.01367188 104.13671875 C7.7522361 104.13096158 5.11486252 104.03828751 2 103 C1.67 97.06 1.34 91.12 1 85 C0.34 86.175625 -0.32 87.35125 -1 88.5625 C-7.43824921 98.751886 -16.45815588 102.82218482 -27.8671875 105.58764648 C-46.02970792 109.09915026 -62.87822722 103.73464123 -78 94 C-78 96.97 -78 99.94 -78 103 C-80.48168614 104.24084307 -82.16426199 104.12933103 -84.9375 104.1328125 C-85.91460938 104.13410156 -86.89171875 104.13539063 -87.8984375 104.13671875 C-88.92195312 104.13285156 -89.94546875 104.12898438 -91 104.125 C-92.02351562 104.12886719 -93.04703125 104.13273437 -94.1015625 104.13671875 C-95.07867188 104.13542969 -96.05578125 104.13414062 -97.0625 104.1328125 C-97.96097656 104.13168457 -98.85945312 104.13055664 -99.78515625 104.12939453 C-102 104 -102 104 -104 103 C-104.0093457 101.69329346 -104.01869141 100.38658691 -104.02832031 99.0402832 C-104.06823838 94.18512066 -104.13400275 89.33059056 -104.20751953 84.47583008 C-104.23571852 82.37597792 -104.25693837 80.27601983 -104.27099609 78.17602539 C-104.29244014 75.15455941 -104.33909867 72.13436566 -104.390625 69.11328125 C-104.39185364 68.17664139 -104.39308228 67.24000153 -104.39434814 66.27497864 C-104.48994881 62.00593049 -104.61276608 59.62132364 -106.91308594 55.93041992 C-110.2006805 52.88935649 -112.49798451 52.72064926 -116.96875 52.77734375 C-121.17766145 53.2387052 -124.35391452 55.82469742 -127 59 C-127.91035504 61.73106511 -128.12215713 63.29893239 -128.11352539 66.10424805 C-128.11341209 67.3351844 -128.11341209 67.3351844 -128.11329651 68.59098816 C-128.10813522 69.47232925 -128.10297394 70.35367035 -128.09765625 71.26171875 C-128.09553383 72.62040825 -128.09553383 72.62040825 -128.09336853 74.00654602 C-128.08777001 76.90023091 -128.07521781 79.79383849 -128.0625 82.6875 C-128.05748481 84.64908742 -128.05292193 86.61067606 -128.04882812 88.57226562 C-128.03780107 93.38154021 -128.02053747 98.190757 -128 103 C-130.54275549 104.27137774 -132.34808201 104.129425 -135.19140625 104.1328125 C-136.21814453 104.13410156 -137.24488281 104.13539063 -138.30273438 104.13671875 C-139.37845703 104.13285156 -140.45417969 104.12898438 -141.5625 104.125 C-142.64208984 104.12886719 -143.72167969 104.13273437 -144.83398438 104.13671875 C-145.85943359 104.13542969 -146.88488281 104.13414062 -147.94140625 104.1328125 C-148.88701416 104.13168457 -149.83262207 104.13055664 -150.80688477 104.12939453 C-153 104 -153 104 -154 103 C-154.09429342 100.82194281 -154.11742538 98.6407872 -154.11352539 96.46069336 C-154.11367142 95.77779739 -154.11381744 95.09490143 -154.1139679 94.39131165 C-154.11326876 92.12412386 -154.1054764 89.85701726 -154.09765625 87.58984375 C-154.09579207 86.02185613 -154.09436817 84.45386793 -154.09336853 82.88587952 C-154.08954334 78.75123497 -154.07971306 74.61662534 -154.06866455 70.48199463 C-154.05845044 66.26599602 -154.05387091 62.04999178 -154.04882812 57.83398438 C-154.03809078 49.55597174 -154.02049399 41.27799423 -154 33 C-145.75 33 -137.5 33 -129 33 C-128.34 34.65 -127.68 36.3 -127 38 C-125.989375 37.21625 -124.97875 36.4325 -123.9375 35.625 C-117.79715119 31.28122619 -111.3719695 30.22907508 -104 31 C-94.55087978 32.87808601 -86.47823301 36.86091096 -81 45 C-77.40904342 52.5333376 -77.45928226 60.36366251 -77.3125 68.5625 C-77.27833984 69.85736328 -77.24417969 71.15222656 -77.20898438 72.48632812 C-77.1270784 75.65725946 -77.06184949 78.82861406 -77 82 C-74.36 77.71 -71.72 73.42 -69 69 C-65.05617043 69.98595739 -62.73299251 71.25563601 -59.3125 73.375 C-51.49151877 77.99735177 -44.24971682 81.27814269 -35 80 C-32.39661918 79.23946178 -30.41290364 78.30698947 -28 77 C-26.43299558 73.86599115 -26.14835439 70.36844905 -27 67 C-30.56500666 63.5424135 -34.81066351 61.33013826 -39.1875 59.0625 C-40.18052124 58.53765015 -40.18052124 58.53765015 -41.19360352 58.00219727 C-44.90135588 56.05214746 -48.64415691 54.21636586 -52.4375 52.4375 C-61.61259458 47.86519373 -67.67130554 41.09896168 -71.3125 31.5625 C-73.01336683 22.74891735 -72.27622985 14.37371034 -67.5234375 6.578125 C-60.74887333 -2.64023173 -51.77239101 -8.9442794 -40.37890625 -10.7734375 C-26.72912575 -11.6886829 -10.53522632 -9.15259957 0 0 Z M55 60 C52.78906282 64.42187436 53.59011181 70.18674152 54 75 C55.85195477 79.29653507 57.22367366 80.55211942 61.25 82.875 C66.28852392 84.38655718 70.27769627 85.09770312 75.1796875 83.12109375 C78.78157062 81.12224652 80.77330808 79.3434726 83.0625 75.875 C84.31587377 70.6943884 84.32797696 66.17591019 83 61 C80.0639455 57.21403499 76.97427062 54.27746506 72.109375 53.59375 C64.53982651 53.38250679 59.81212499 53.80839918 55 60 Z " fill="#727272" transform="translate(659,187)"/>
<path d="M0 0 C8.58 0 17.16 0 26 0 C26.33 16.83 26.66 33.66 27 51 C30.96 48.525 30.96 48.525 35 46 C43.48294978 42.20974584 51.58261 43.87395056 60 47 C64.17447796 48.77801839 66.96935262 50.61966253 70 54 C70.144375 52.865625 70.28875 51.73125 70.4375 50.5625 C71 47 71 47 72 46 C73.68608966 45.92794489 75.37500659 45.91613932 77.0625 45.9375 C77.98160156 45.94652344 78.90070313 45.95554688 79.84765625 45.96484375 C80.55792969 45.97644531 81.26820313 45.98804688 82 46 C81.96447021 45.27820557 81.92894043 44.55641113 81.89233398 43.81274414 C81.735358 40.56289576 81.58632349 37.31273147 81.4375 34.0625 C81.35338867 32.35803711 81.35338867 32.35803711 81.26757812 30.61914062 C81.21923828 29.53955078 81.17089844 28.45996094 81.12109375 27.34765625 C81.05039673 25.84730835 81.05039673 25.84730835 80.97827148 24.31665039 C81 22 81 22 82 21 C83.85369611 20.91262355 85.71067541 20.89301847 87.56640625 20.90234375 C88.57904541 20.90484131 89.59168457 20.90733887 90.63500977 20.90991211 C91.93108154 20.91901611 93.22715332 20.92812012 94.5625 20.9375 C98.666875 20.958125 102.77125 20.97875 107 21 C107 29.25 107 37.5 107 46 C109.289375 45.979375 111.57875 45.95875 113.9375 45.9375 C116.29166332 45.91629132 118.64686445 45.92728259 121 46 C122 47 122 47 122.11352539 48.85766602 C122.10567017 50.04380493 122.10567017 50.04380493 122.09765625 51.25390625 C122.09282227 52.53491211 122.09282227 52.53491211 122.08789062 53.84179688 C122.07532227 55.18854492 122.07532227 55.18854492 122.0625 56.5625 C122.05798828 57.46419922 122.05347656 58.36589844 122.04882812 59.29492188 C122.03700225 61.53001314 122.0205222 63.76497437 122 66 C119.87562788 66.19448477 117.75046809 66.38038289 115.625 66.5625 C113.84996094 66.71912109 113.84996094 66.71912109 112.0390625 66.87890625 C109 67 109 67 107 66 C107.10991641 70.08388613 107.24053855 74.16685411 107.375 78.25 C107.4059375 79.40886719 107.436875 80.56773437 107.46875 81.76171875 C107.50742187 82.87675781 107.54609375 83.99179687 107.5859375 85.140625 C107.6173584 86.16704102 107.6487793 87.19345703 107.68115234 88.25097656 C107.99636625 90.96867073 108.61032351 92.66924435 110 95 C111.918125 94.690625 111.918125 94.690625 113.875 94.375 C116.0546875 94.0234375 116.0546875 94.0234375 118 94 C118.66 94.66 119.32 95.32 120 96 C120.43570313 95.44570313 120.87140625 94.89140625 121.3203125 94.3203125 C127.51612903 86.78341014 127.51612903 86.78341014 133 86 C138.72350766 85.94241944 142.49970784 87.31794277 147 91 C150.31664822 94.67520478 151.82430791 97.20794066 152.3125 102.1875 C151.92862564 106.87076724 150.71945673 110.17446454 148 114 C143.11277093 117.88983538 139.29556065 119.2649384 133.0390625 119.2421875 C131 119 131 119 128.0625 117.375 C123.62885376 115.38438332 120.50450623 116.65683814 116 118 C108.24418709 120.25882128 100.0938711 119.91461959 92.90234375 116.1953125 C86.94676345 112.4532025 84.53710717 107.82572344 82.44165039 101.24707031 C81.81310085 98.04907698 81.76349996 94.85733719 81.68359375 91.609375 C81.66281265 90.90476135 81.64203156 90.20014771 81.62062073 89.47418213 C81.55546163 87.23288319 81.49639752 84.99147136 81.4375 82.75 C81.39428274 81.22655103 81.35066743 79.70311329 81.30664062 78.1796875 C81.19981509 74.45324409 81.09845361 70.72667506 81 67 C79.35 67 77.7 67 76 67 C76 83.17 76 99.34 76 116 C73.51831386 117.24084307 71.83573801 117.12933103 69.0625 117.1328125 C68.08539062 117.13410156 67.10828125 117.13539063 66.1015625 117.13671875 C65.07804688 117.13285156 64.05453125 117.12898438 63 117.125 C61.97648438 117.12886719 60.95296875 117.13273437 59.8984375 117.13671875 C58.92132812 117.13542969 57.94421875 117.13414062 56.9375 117.1328125 C56.03902344 117.13168457 55.14054688 117.13055664 54.21484375 117.12939453 C52 117 52 117 50 116 C49.9906543 114.69329346 49.98130859 113.38658691 49.97167969 112.0402832 C49.93176162 107.18512066 49.86599725 102.33059056 49.79248047 97.47583008 C49.76428148 95.37597792 49.74306163 93.27601983 49.72900391 91.17602539 C49.70755986 88.15455941 49.66090133 85.13436566 49.609375 82.11328125 C49.60814636 81.17664139 49.60691772 80.24000153 49.60565186 79.27497864 C49.51005119 75.00593049 49.38723392 72.62132364 47.08691406 68.93041992 C43.60144775 65.70632281 40.93374534 65.61091132 36.328125 65.640625 C32.40995764 66.24544278 30.69641184 68.16876757 28 71 C26.8584378 73.2831244 26.84665628 74.63479305 26.79467773 77.17431641 C26.77473251 78.03505768 26.75478729 78.89579895 26.73423767 79.78262329 C26.71752518 80.71287323 26.70081268 81.64312317 26.68359375 82.6015625 C26.66281265 83.55316254 26.64203156 84.50476257 26.62062073 85.48519897 C26.55511867 88.53172432 26.4962372 91.57833743 26.4375 94.625 C26.39431541 96.68750916 26.35070114 98.75000937 26.30664062 100.8125 C26.1994366 105.87490954 26.09817098 110.93740755 26 116 C23.27550309 117.36224845 21.10695475 117.13224008 18.0625 117.125 C16.47115234 117.12886719 16.47115234 117.12886719 14.84765625 117.1328125 C9.88700798 116.961582 4.94321815 116.44938347 0 116 C0 77.72 0 39.44 0 0 Z " fill="#727272" transform="translate(771,174)"/>
<path d="M0 0 C1.70209877 0.00333092 1.70209877 0.00333092 3.43858337 0.00672913 C4.71983597 0.00680466 6.00108856 0.00688019 7.32116699 0.00695801 C8.73001646 0.01206542 10.13886554 0.01728143 11.54771423 0.02259827 C12.98118033 0.02446249 14.41464706 0.02588637 15.84811401 0.02688599 C19.62765755 0.03071079 23.40716288 0.04054075 27.18669128 0.05158997 C31.04075097 0.06180489 34.8948168 0.06638378 38.74888611 0.07142639 C46.31596085 0.08216306 53.88300407 0.09923903 61.45005798 0.12025452 C62.44005798 2.10025452 62.44005798 2.10025452 63.45005798 4.12025452 C64.23380798 3.46025452 65.01755798 2.80025452 65.82505798 2.12025452 C70.11687255 -0.72739496 74.47636067 -0.65739197 79.45005798 0.12025452 C84.28721384 2.27010156 86.70743689 5.17215074 88.82505798 9.90150452 C90.21121374 14.82235747 89.1556897 19.25240586 87.38755798 23.93275452 C84.54047881 27.14719874 81.57299786 28.91266901 77.45005798 30.12025452 C72.20126651 30.40845771 67.6150623 29.47912896 63.45005798 26.12025452 C63.45005798 25.46025452 63.45005798 24.80025452 63.45005798 24.12025452 C62.79005798 24.45025452 62.13005798 24.78025452 61.45005798 25.12025452 C58.60576441 25.20716453 55.78626622 25.23579253 52.94224548 25.21791077 C51.68131577 25.21578835 51.68131577 25.21578835 50.39491272 25.21362305 C47.70492523 25.20801689 45.01502039 25.19546338 42.32505798 25.18275452 C40.5034446 25.17774031 38.68182992 25.17317726 36.86021423 25.16908264 C32.39010454 25.15889552 27.92017399 25.13932136 23.45005798 25.12025452 C23.45005798 31.72025452 23.45005798 38.32025452 23.45005798 45.12025452 C35.33005798 45.12025452 47.21005798 45.12025452 59.45005798 45.12025452 C59.45005798 52.71025452 59.45005798 60.30025452 59.45005798 68.12025452 C55.42084757 69.12755712 52.20015063 69.23434219 48.05943298 69.21791077 C47.35481934 69.21649582 46.65020569 69.21508087 45.92424011 69.21362305 C43.68280214 69.20804385 41.44146556 69.19549525 39.20005798 69.18275452 C37.67662193 69.17773682 36.1531843 69.17317439 34.62974548 69.16908264 C30.90315027 69.15808126 27.17661403 69.14083098 23.45005798 69.12025452 C23.45791321 71.06629578 23.45791321 71.06629578 23.46592712 73.051651 C23.48397268 77.84672867 23.49548835 82.64180332 23.50498962 87.43690491 C23.51003087 89.51568608 23.51686373 91.59446368 23.52549744 93.67323303 C23.53757221 96.65428037 23.54328822 99.63528101 23.54771423 102.61634827 C23.55287552 103.55175949 23.5580368 104.48717072 23.56335449 105.45092773 C23.56346779 106.74215294 23.56346779 106.74215294 23.56358337 108.0594635 C23.56580399 108.82113327 23.5680246 109.58280304 23.5703125 110.36755371 C23.45005798 112.12025452 23.45005798 112.12025452 22.45005798 113.12025452 C20.60846776 113.21985072 18.76308831 113.25105862 16.91880798 113.25306702 C15.79861267 113.25435608 14.67841736 113.25564514 13.52427673 113.25697327 C12.34478455 113.25310608 11.16529236 113.24923889 9.95005798 113.24525452 C8.1808197 113.2510553 8.1808197 113.2510553 6.37583923 113.25697327 C5.25564392 113.2556842 4.13544861 113.25439514 2.98130798 113.25306702 C1.94554626 113.25193909 0.90978455 113.25081116 -0.15736389 113.24964905 C-2.54994202 113.12025452 -2.54994202 113.12025452 -3.54994202 112.12025452 C-3.64768142 110.68044238 -3.67625915 109.23586548 -3.67692566 107.79273987 C-3.67974548 106.85883926 -3.68256531 105.92493866 -3.68547058 104.96273804 C-3.68344635 103.92997238 -3.68142212 102.89720673 -3.67933655 101.83314514 C-3.68108887 100.75195908 -3.68284119 99.67077301 -3.68464661 98.55682373 C-3.6890676 94.96336793 -3.68612626 91.36996087 -3.68275452 87.77650452 C-3.68342748 85.29168183 -3.68439745 82.8068592 -3.68565369 80.32203674 C-3.6873206 74.43712077 -3.68380779 68.55222264 -3.67850292 62.66730928 C-3.6747481 57.96655853 -3.67607568 53.26582871 -3.68031311 48.56507874 C-3.68609238 42.09951162 -3.68702654 35.63396481 -3.68375778 29.168396 C-3.68308827 26.69631953 -3.68391779 24.22424221 -3.68623734 21.75216675 C-3.6887624 18.30387554 -3.68492532 14.85565017 -3.67933655 11.40736389 C-3.68136078 10.37459824 -3.68338501 9.34183258 -3.68547058 8.277771 C-3.68265076 7.34387039 -3.67983093 6.40996979 -3.67692566 5.44776917 C-3.67654863 4.63143761 -3.67617161 3.81510605 -3.67578316 2.97403717 C-3.47641616 0.03713534 -2.95356999 0.13928949 0 0 Z " fill="#737373" transform="translate(414.54994201660156,177.87974548339844)"/>
<path d="M0 0 C8.25 0 16.5 0 25 0 C26.13180696 3.39542088 26.08903391 5.89663046 26.03759766 9.47509766 C26.02959641 10.12741867 26.02159515 10.77973969 26.01335144 11.451828 C25.98549047 13.60601436 25.95001055 15.75999703 25.9140625 17.9140625 C25.89229411 19.40953118 25.87084453 20.90500453 25.84970093 22.40048218 C25.8042225 25.53267533 25.75499703 28.66478139 25.703125 31.796875 C25.63678304 35.81988821 25.57956087 39.84296999 25.52509499 43.86615944 C25.4823464 46.95274695 25.43489959 50.03924825 25.38599777 53.12574387 C25.3630389 54.60975372 25.34153696 56.09378683 25.32149124 57.5778389 C25.2928241 59.64656651 25.25787524 61.71509257 25.22119141 63.78369141 C25.20263092 64.96266998 25.18407043 66.14164856 25.16494751 67.35635376 C25 70 25 70 24 71 C22.30441274 71.09932153 20.60474253 71.13080007 18.90625 71.1328125 C17.87628906 71.13410156 16.84632813 71.13539063 15.78515625 71.13671875 C14.15900391 71.13091797 14.15900391 71.13091797 12.5 71.125 C11.41589844 71.12886719 10.33179688 71.13273437 9.21484375 71.13671875 C8.18488281 71.13542969 7.15492188 71.13414062 6.09375 71.1328125 C5.14177734 71.13168457 4.18980469 71.13055664 3.20898438 71.12939453 C1 71 1 71 0 70 C-0.12917548 67.8946786 -0.18856438 65.7850536 -0.22119141 63.67602539 C-0.2326973 63.01584915 -0.24420319 62.35567291 -0.25605774 61.67549133 C-0.29288017 59.48292769 -0.32244398 57.2903348 -0.3515625 55.09765625 C-0.37466652 53.5792956 -0.39805674 52.06093928 -0.42172241 50.54258728 C-0.47024371 47.35565876 -0.5151644 44.16870442 -0.55761719 40.98168945 C-0.61240848 36.89124994 -0.67624029 32.80101075 -0.74279213 28.71074772 C-0.79281351 25.57361257 -0.83796175 22.43642183 -0.88163376 19.29919243 C-0.90323846 17.79084448 -0.92639162 16.28251791 -0.9510994 14.77421761 C-0.98489769 12.66730119 -1.01212831 10.56040045 -1.03759766 8.45336914 C-1.05456696 7.25281387 -1.07153625 6.05225861 -1.08901978 4.81532288 C-1 2 -1 2 0 0 Z " fill="#727272" transform="translate(476,220)"/>
<path d="M0 0 C3.96830376 2.28412384 6.48137031 5.22205546 9 9 C9.71249183 14.27741041 9.64556003 18.70887994 7.25 23.5 C3.43756681 27.73603687 0.56522937 29.69820831 -5.1875 30.375 C-10.93825945 29.80935153 -14.77677236 27.0797936 -18.9375 23.1875 C-21.30513686 18.31295352 -21.39846869 14.38292075 -19.9375 9.3125 C-15.32588978 1.42813414 -8.96728157 -1.4476329 0 0 Z " fill="#717171" transform="translate(680,178)"/>
<path d="M0 0 C7.01694482 1.25397873 14.01556007 2.57584088 21 4 C20.67 4.66 20.34 5.32 20 6 C13.29225357 4.82144268 6.63818061 3.52351686 0 2 C0 1.34 0 0.68 0 0 Z " fill="#626262" transform="translate(139,170)"/>
<path d="M0 0 C0.73605469 0.47050781 1.47210938 0.94101563 2.23046875 1.42578125 C3.20628906 2.04839844 4.18210937 2.67101562 5.1875 3.3125 C6.15042969 3.92738281 7.11335938 4.54226562 8.10546875 5.17578125 C10.71634303 6.82123103 13.3469602 8.42369665 16 10 C15.01 10.33 14.02 10.66 13 11 C10.49026115 9.60050651 8.17830602 8.17371593 5.8125 6.5625 C5.15830078 6.12873047 4.50410156 5.69496094 3.83007812 5.24804688 C2.21391967 4.17454017 0.60613901 3.0884403 -1 2 C-0.67 1.34 -0.34 0.68 0 0 Z " fill="#626262" transform="translate(83,107)"/>
<path d="M0 0 C2 4 2 4 3 7 C2.01 7.66 1.02 8.32 0 9 C0 6.03 0 3.06 0 0 Z M4 4 C4.66 4.33 5.32 4.66 6 5 C5.01 5 4.02 5 3 5 C3.33 4.67 3.66 4.34 4 4 Z " fill="#797979" transform="translate(795,220)"/>
<path d="M0 0 C2.97 0.99 5.94 1.98 9 3 C8.67 3.66 8.34 4.32 8 5 C2.25 3.125 2.25 3.125 0 2 C0 1.34 0 0.68 0 0 Z " fill="#616161" transform="translate(133,133)"/>
</svg>
