<svg version="1.1" id="Layer_1" xmlns="http://www.w3.org/2000/svg" xmlns:xlink="http://www.w3.org/1999/xlink" x="0px" y="0px"
	 width="100%" viewBox="0 0 1024 288" enable-background="new 0 0 1024 288" xml:space="preserve">
<path fill="#000000" opacity="1.000000" stroke="none" 
	d="
M250.454102,289.000000 
	C248.908096,284.314606 247.816208,279.629211 246.573273,274.295685 
	C244.993362,276.592072 243.806000,278.633362 242.309875,280.415466 
	C240.276108,282.837982 238.033524,285.090027 235.084244,286.463715 
	C231.140915,288.300476 229.936203,287.644592 229.850952,283.365509 
	C229.758026,278.702271 229.750763,274.033936 229.855515,269.371185 
	C229.931778,265.977386 228.602432,264.921753 225.261032,265.727905 
	C221.869293,266.546143 218.380768,266.971100 214.927216,267.521759 
	C213.331131,267.776245 211.604782,268.451355 209.929688,265.809082 
	C221.667587,252.952026 234.182968,239.923264 232.561005,220.264954 
	C230.023621,219.066925 228.016876,221.266922 225.847183,220.313583 
	C224.815414,217.685242 227.655777,215.725403 227.014359,212.853897 
	C221.169693,211.001892 214.721329,213.400284 208.477982,211.362289 
	C209.729630,207.469498 213.705093,206.843597 215.610825,203.759537 
	C202.036499,202.132584 188.412109,202.879547 173.671600,200.844482 
	C178.422440,196.121567 184.622009,195.987015 189.313736,191.658478 
	C168.890488,190.264740 149.176025,189.588593 130.860916,180.169739 
	C139.020844,177.670868 147.180786,175.172012 155.340729,172.673141 
	C115.206810,166.514099 80.835732,149.864319 53.455456,119.860107 
	C53.621315,119.354553 53.787174,118.848991 53.953033,118.343437 
	C77.303177,123.283363 100.653313,128.223297 124.003448,133.163223 
	C121.911476,130.223129 118.986710,129.524719 116.270836,128.413849 
	C86.317192,116.161972 59.642494,99.489281 40.667866,72.416138 
	C31.369112,59.148602 25.088078,44.564110 21.732445,28.730965 
	C21.486736,27.571617 20.555794,26.238447 22.085333,24.517599 
	C26.439417,28.526314 30.786453,32.509258 35.112656,36.514702 
	C63.391796,62.697147 96.248711,81.260834 132.071411,94.942818 
	C154.821899,103.632050 178.079865,110.554901 201.893692,115.643578 
	C208.793381,117.117950 209.735687,119.151222 207.257736,125.855209 
	C205.658539,130.181839 205.363586,134.834412 203.608704,139.212067 
	C202.059052,143.077835 206.638229,149.911957 210.661804,151.224487 
	C213.258865,152.071686 214.860474,151.074036 215.574631,148.539948 
	C216.022949,146.949066 216.368027,145.329086 217.211182,143.226227 
	C222.127304,139.960968 226.749786,138.866913 231.739655,141.340118 
	C236.472961,143.686142 238.832581,148.027771 240.986633,152.563599 
	C240.704254,146.715759 239.232300,141.138275 233.165787,139.465958 
	C227.533188,137.913223 221.276978,136.846909 217.017426,143.029617 
	C214.772202,144.572144 215.245605,147.629135 213.515808,149.454712 
	C207.664902,146.587555 206.166306,142.121826 209.274597,137.030045 
	C209.869568,136.055405 211.025955,134.880310 210.832123,134.053589 
	C209.333801,127.663605 212.940384,123.526306 217.019089,119.706367 
	C222.249207,114.808067 228.161942,111.725449 235.724777,111.462219 
	C248.896698,111.003754 260.169739,115.458565 270.600616,122.972481 
	C273.405457,124.992966 276.030273,127.362297 280.112823,128.882416 
	C281.883057,120.631424 288.707184,119.919296 295.303986,118.513382 
	C321.514038,112.927498 347.629486,106.997513 372.869781,97.734154 
	C414.583038,82.425117 451.662537,59.738796 483.626129,28.791695 
	C485.013428,27.448532 486.164856,25.629469 489.168396,25.547180 
	C477.434174,79.484749 440.350128,109.509651 391.421265,130.321854 
	C398.274231,131.486023 403.396515,129.891235 408.555695,128.752045 
	C414.076965,127.532898 419.597107,126.308426 425.117523,125.085373 
	C430.484344,123.896339 435.866974,122.773376 441.213043,121.497475 
	C446.510010,120.233307 451.614655,118.160339 457.187592,117.474670 
	C455.184021,124.524696 429.788757,145.004486 412.654266,153.939011 
	C395.228943,163.025208 376.623657,168.356552 357.206085,171.977280 
	C363.843506,177.095490 372.413269,176.785889 380.373199,181.014923 
	C361.580292,189.840775 342.062317,189.756653 322.382568,191.706940 
	C325.679382,196.146790 331.509277,195.546555 334.909393,200.761993 
	C321.611572,203.192719 308.901428,202.509872 296.417328,203.741638 
	C296.645874,207.304947 300.662567,207.626740 300.868164,211.270950 
	C295.259583,213.410782 289.174622,211.332657 283.312897,212.565857 
	C282.383514,215.384155 285.151794,217.532150 284.661743,220.241226 
	C282.457977,221.922455 280.640778,219.214569 277.916199,219.893082 
	C276.402161,225.766357 277.204803,231.669937 279.818817,237.339661 
	C283.613708,245.570587 289.123688,252.706390 294.637848,259.825653 
	C296.341003,262.024597 297.962769,264.286591 300.019226,267.054626 
	C294.619415,268.104340 290.177979,266.684418 285.809845,265.738739 
	C281.429382,264.790344 280.032654,266.202667 280.257568,270.470337 
	C280.494080,274.957489 280.257599,279.467499 280.345093,283.965210 
	C280.412201,287.413666 278.893402,288.015228 275.969788,286.780212 
	C272.504730,285.316528 269.598999,283.201263 267.474152,280.062225 
	C266.385742,278.454376 265.263611,276.869385 263.714417,274.636566 
	C262.447906,279.664856 260.422791,283.675903 260.004852,288.590118 
	C256.969421,289.000000 253.938812,289.000000 250.454102,289.000000 
M244.250931,120.106247 
	C235.418900,120.742104 227.401367,122.922531 221.990631,131.612701 
	C225.658844,132.019073 228.584488,131.141479 229.233322,128.414719 
	C230.292511,123.963348 233.457260,123.313332 236.921204,122.609360 
	C240.794220,121.822227 244.674149,121.069183 249.807053,120.052544 
	C247.359207,120.052544 246.204330,120.052544 244.250931,120.106247 
z"/>
<path fill="#000000" opacity="1.000000" stroke="none" 
	d="
M869.027222,188.842590 
	C870.989014,190.339417 873.831238,188.683960 874.940735,191.365799 
	C871.710327,194.187576 851.655151,194.177017 848.400085,191.394196 
	C848.531433,191.098022 848.659180,190.551346 848.805115,190.546463 
	C856.138672,190.300095 855.004089,184.968353 854.999695,180.301849 
	C854.982300,161.808319 854.893616,143.314224 855.020386,124.821648 
	C855.049622,120.550186 855.181519,116.724617 849.492249,116.396645 
	C848.848328,116.359528 848.227783,115.920143 847.505981,115.631027 
	C851.455444,112.269325 871.074707,112.012169 875.182861,114.564087 
	C875.292847,116.062378 874.287842,116.870811 873.095703,116.848145 
	C868.587341,116.762489 868.170715,119.412849 868.259033,123.045258 
	C868.449219,130.871155 868.461304,138.709061 868.246643,146.533844 
	C868.142883,150.318787 869.231750,151.963928 873.293884,151.867706 
	C882.785400,151.642838 892.288696,151.637573 901.780762,151.841537 
	C905.785828,151.927582 907.013916,150.364273 906.912598,146.546066 
	C906.709473,138.887329 906.754028,131.218185 906.878967,123.556313 
	C906.937317,119.975388 906.986023,116.765709 902.084717,116.710571 
	C901.155701,116.700119 900.181458,116.049232 900.139099,114.798706 
	C903.461426,112.285431 923.087830,112.095863 927.151733,114.530212 
	C927.270508,116.024307 926.274414,116.857758 925.085144,116.838821 
	C920.498901,116.765808 920.294312,119.569046 920.312317,123.119225 
	C920.413818,143.111664 920.405090,163.105087 920.316101,183.097672 
	C920.299438,186.847672 920.167114,190.237946 925.420532,189.944443 
	C926.244873,189.898392 926.906006,190.632538 926.894653,191.655548 
	C923.652466,193.903656 904.407898,194.071472 900.065186,191.730316 
	C900.391479,191.199188 900.710632,190.230682 901.026611,190.231735 
	C907.107056,190.251724 907.001038,186.218262 906.899475,181.823654 
	C906.730225,174.496933 906.764465,167.161240 906.912781,159.833359 
	C906.982788,156.372879 905.603943,155.130112 902.180176,155.181625 
	C892.352356,155.329498 882.521179,155.262955 872.691284,155.249603 
	C870.324768,155.246399 868.285461,155.502762 868.345581,158.619141 
	C868.537964,168.594009 867.796692,178.581329 869.027222,188.842590 
z"/>
<path fill="#000000" opacity="1.000000" stroke="none" 
	d="
M789.467407,147.560806 
	C788.921021,158.295624 789.741028,168.301987 795.403625,177.346786 
	C801.304688,186.772308 814.597717,192.278076 825.013733,189.678635 
	C827.008545,189.180801 827.189209,187.978027 827.181335,186.381226 
	C827.138000,177.554886 827.035950,168.727783 827.114685,159.902374 
	C827.144958,156.509872 825.833801,155.214508 822.387329,155.157898 
	C818.619995,155.095993 814.578796,156.260468 810.936829,154.093307 
	C811.889404,151.413803 813.763489,151.832626 815.330444,151.820602 
	C822.158142,151.768265 828.988037,151.891373 835.813965,151.770569 
	C839.303528,151.708817 841.115906,152.933517 841.085144,156.646698 
	C840.996704,167.304520 841.044128,177.963409 840.992554,188.621658 
	C840.981750,190.853531 840.805298,193.217941 837.726562,193.205215 
	C826.581177,193.159119 815.308350,194.518723 804.319580,192.666763 
	C787.337036,189.804672 777.971130,178.431564 776.144409,158.755234 
	C774.898132,145.331375 776.916565,132.418381 787.050964,122.192001 
	C792.962280,116.227013 800.293335,113.251015 808.574829,113.011749 
	C817.560486,112.752136 826.560913,113.053291 835.552124,112.919785 
	C839.583069,112.859924 841.389893,114.413971 841.118896,118.533203 
	C840.911560,121.684372 841.091003,124.859283 841.012695,128.021515 
	C840.983765,129.190109 840.756042,130.488510 839.418579,130.857513 
	C837.768860,131.312653 837.067505,130.041962 836.426270,128.832291 
	C836.348267,128.685150 836.288574,128.526184 836.196045,128.389206 
	C833.226440,123.995148 834.044556,116.749054 825.415466,116.797661 
	C813.426880,116.865204 801.868958,116.680229 794.999084,129.082535 
	C791.867615,134.735931 790.373657,140.807541 789.467407,147.560806 
z"/>
<path fill="#000000" opacity="1.000000" stroke="none" 
	d="
M692.011353,193.311859 
	C678.656982,193.316467 678.656982,193.316467 678.680664,180.301605 
	C678.682129,179.468323 678.648071,178.632965 678.695129,177.802216 
	C678.768799,176.500214 678.506958,174.842377 680.153870,174.441132 
	C682.075195,173.973053 682.965820,175.603516 683.175476,177.038589 
	C684.942139,189.131470 692.863464,191.307770 703.238220,189.742859 
	C704.379089,189.570770 705.568054,189.724548 706.734619,189.713989 
	C715.303894,189.636490 720.120056,185.977905 721.476013,178.520142 
	C722.842102,171.006805 719.390808,164.775848 711.658691,162.164429 
	C705.530212,160.094620 699.148499,158.762726 692.858643,157.185104 
	C680.067749,153.976898 674.181885,144.931046 675.751587,130.788208 
	C676.907959,120.369820 685.730713,113.112175 697.669006,112.961678 
	C706.500610,112.850342 715.336548,113.058151 724.167297,112.916740 
	C728.040466,112.854721 729.565979,114.341835 729.357849,118.239136 
	C729.120605,122.682465 729.303101,127.148201 729.303101,131.413406 
	C725.652283,132.584793 724.960022,130.133514 724.638611,128.430786 
	C722.683533,118.072807 716.152588,115.265633 706.601013,116.942856 
	C705.144043,117.198700 703.605408,116.955360 702.107727,117.018494 
	C694.904541,117.322136 690.531738,120.670410 689.373901,126.733452 
	C687.807007,134.938538 690.723755,141.351547 697.897034,143.792953 
	C704.652100,146.092056 711.684204,147.565277 718.554688,149.539932 
	C730.597656,153.001190 736.561462,162.174957 734.909241,174.497574 
	C733.283630,186.622101 725.408752,193.244919 712.508911,193.299957 
	C705.842529,193.328384 699.175842,193.308884 692.011353,193.311859 
z"/>
<path fill="#000000" opacity="1.000000" stroke="none" 
	d="
M657.839539,140.000046 
	C657.843445,134.170929 657.674927,128.834198 657.909058,123.515190 
	C658.083496,119.552353 657.480530,116.582657 652.709229,116.332787 
	C651.881226,116.289429 651.213013,115.664436 651.135559,114.695312 
	C654.880005,112.203217 664.510315,112.215927 668.104126,114.700104 
	C668.000977,115.006355 667.920227,115.560867 667.776428,115.577744 
	C661.307129,116.337082 661.151611,120.630226 661.226013,125.901649 
	C661.496338,145.049332 661.419983,164.203812 661.263672,183.354019 
	C661.230835,187.376770 661.675110,190.267532 666.611145,190.038391 
	C667.072571,190.016983 667.568481,190.740585 667.865479,190.974319 
	C667.893494,192.331833 667.324158,193.001465 666.432617,193.015762 
	C660.279968,193.114426 654.122437,193.271408 647.974121,193.112625 
	C645.208496,193.041199 644.483276,190.274994 643.332275,188.341782 
	C631.663452,168.744476 620.052368,149.112823 608.409424,129.500107 
	C606.804321,126.796310 605.113647,124.143341 603.187988,121.021721 
	C601.859009,122.998169 602.270935,124.798637 602.267700,126.440987 
	C602.230530,145.259369 602.310120,164.078247 602.197998,182.896027 
	C602.174255,186.882126 602.081543,190.400818 607.580994,190.088089 
	C608.035583,190.062241 608.534241,190.812256 609.042786,191.226486 
	C605.981262,194.019806 596.000366,194.175522 592.060425,191.616592 
	C592.285461,191.204636 592.509827,190.423508 592.742920,190.420883 
	C599.569214,190.344070 598.763550,185.507614 598.753784,181.031860 
	C598.712646,162.213455 598.629883,143.393890 598.814026,124.577209 
	C598.856873,120.191185 598.751831,116.576813 593.204285,116.247826 
	C592.907410,116.230225 592.573120,115.990929 592.353638,115.761589 
	C592.139038,115.537376 592.049377,115.193710 591.874817,114.841904 
	C592.075623,113.001945 593.586609,113.051956 594.849060,113.035751 
	C600.177002,112.967354 605.506836,113.049446 610.834412,112.969162 
	C613.895325,112.923042 615.093384,115.034302 616.397400,117.236519 
	C628.781738,138.151291 641.194763,159.049042 653.611450,179.944641 
	C654.691589,181.762314 655.856628,183.529526 657.839905,185.167053 
	C657.839905,170.278046 657.839905,155.389038 657.839539,140.000046 
z"/>
<path fill="#000000" opacity="1.000000" stroke="none" 
	d="
M528.952148,155.993652 
	C530.770752,155.990005 532.109863,155.899261 533.434326,156.000046 
	C537.257263,156.291016 540.123352,155.563644 539.796631,150.768036 
	C539.715210,149.573166 540.177185,148.453049 541.617554,148.176117 
	C543.978088,151.361465 544.094360,163.849960 541.778259,167.644608 
	C539.458984,167.222183 539.674561,165.299286 539.706299,163.746429 
	C539.771973,160.542053 538.385925,159.266968 535.188538,159.356476 
	C530.029419,159.500885 524.860962,159.491653 519.701111,159.361191 
	C516.434570,159.278595 515.278076,160.725906 515.324829,163.871277 
	C515.426392,170.698074 515.410461,177.529221 515.285339,184.355698 
	C515.225891,187.596848 515.689087,190.042618 519.784180,189.724075 
	C520.962463,189.632431 522.252991,189.910645 522.333862,191.462524 
	C522.399414,192.718964 521.404236,193.197601 520.346008,193.191818 
	C512.363281,193.148315 504.380371,193.072632 496.399231,192.918610 
	C495.946503,192.909866 495.508789,192.123489 495.034088,191.670425 
	C495.411346,191.070908 495.675354,190.303452 495.922760,190.308792 
	C502.984497,190.460770 501.930634,185.452408 501.923370,181.037094 
	C501.892242,162.050110 501.838379,143.062790 501.930481,124.076263 
	C501.949646,120.124771 502.000916,116.607460 496.644379,116.561302 
	C495.858643,116.554535 495.180298,115.823235 495.143585,114.637329 
	C496.179230,112.375648 498.417267,112.999718 500.252808,112.993080 
	C517.074463,112.932190 533.897400,113.056030 550.717407,112.878914 
	C555.154358,112.832184 556.705994,114.516571 556.330383,118.791672 
	C556.068970,121.766563 556.303955,124.783203 556.266541,127.780571 
	C556.252014,128.943649 556.240417,130.297119 554.858215,130.683319 
	C553.247192,131.133453 552.416260,129.926117 551.830750,128.692230 
	C550.546265,125.985558 549.270569,123.270050 548.131287,120.500542 
	C547.120056,118.042320 545.495850,116.938560 542.767578,116.975258 
	C535.107727,117.078300 527.444519,117.059814 519.784302,116.960686 
	C516.663208,116.920296 515.266785,118.049400 515.307129,121.342781 
	C515.429688,131.334290 515.447083,141.329926 515.288696,151.320496 
	C515.233398,154.807388 516.579895,156.167877 519.973206,156.007324 
	C522.798035,155.873672 525.634521,155.988998 528.952148,155.993652 
z"/>
<path fill="#000000" opacity="1.000000" stroke="none" 
	d="
M955.651062,157.999908 
	C955.650330,145.511719 955.540588,133.521973 955.711487,121.536240 
	C955.767639,117.599884 954.478210,116.898788 950.523865,116.572639 
	C942.688904,115.926422 938.933655,119.234856 937.123108,126.390480 
	C936.536743,128.707870 936.038940,131.676651 933.067871,132.727768 
	C931.099426,130.046570 930.156921,116.637573 931.639587,114.449646 
	C932.381226,113.355179 933.507446,113.050667 934.680725,113.048950 
	C952.828308,113.022362 970.975891,113.017395 989.123474,113.043198 
	C990.457458,113.045097 992.224670,113.233658 992.449158,114.705505 
	C993.361145,120.684044 993.764099,126.692238 992.007202,132.873322 
	C987.614502,131.613281 987.649414,127.905632 986.521423,125.232719 
	C982.814819,116.449265 982.938904,116.545044 973.826172,116.894714 
	C970.079651,117.038475 968.978088,118.639542 969.017334,122.135201 
	C969.137024,132.789932 969.043640,143.446991 969.044739,154.103134 
	C969.045654,163.760178 969.140076,173.418106 969.031982,183.073837 
	C968.989685,186.849060 969.000488,190.199326 974.199524,189.972687 
	C975.015015,189.937149 975.585083,190.789536 975.567444,191.756866 
	C971.837585,194.098480 951.865051,193.972549 948.419800,191.444901 
	C948.832886,190.961594 949.264465,190.060074 949.631958,190.085495 
	C956.478271,190.559128 955.731812,185.857208 955.686646,181.477127 
	C955.607544,173.818741 955.656189,166.159058 955.651062,157.999908 
z"/>
<path fill="#000000" opacity="1.000000" stroke="none" 
	d="
M580.262329,184.673248 
	C578.628662,191.237320 585.772034,188.347870 587.701050,192.959091 
	C578.049622,193.511139 569.172363,193.456955 559.263977,192.975571 
	C560.379822,191.188049 560.698059,190.227295 561.022522,190.225220 
	C567.133606,190.185913 566.895447,186.071777 566.872498,181.704941 
	C566.772583,162.709778 566.733765,143.712891 566.905945,124.718735 
	C566.945435,120.362648 566.905273,116.711929 561.294739,116.431053 
	C560.685120,116.400536 560.099365,115.892181 559.457703,115.583961 
	C563.109070,112.293167 582.600342,111.964577 586.958862,114.537567 
	C587.092468,115.744781 586.414673,116.681847 585.382874,116.702637 
	C580.483398,116.801361 580.170532,119.786728 580.198730,123.731445 
	C580.342834,143.892532 580.262512,164.055222 580.262329,184.673248 
z"/>
<path fill="#000000" opacity="1.000000" stroke="none" 
	d="
M748.106018,181.633728 
	C748.078247,162.532104 747.979065,143.886566 748.082764,125.242165 
	C748.107117,120.864601 748.341797,116.819572 742.436890,116.353889 
	C741.983521,116.318130 741.594299,115.470558 741.168701,114.992928 
	C744.531982,112.237335 764.047363,112.061646 768.199341,114.607178 
	C768.289612,115.584564 767.773438,116.415604 766.921997,116.446335 
	C761.256531,116.650848 761.240845,120.284401 761.278015,124.653473 
	C761.442383,143.962997 761.388977,163.275192 761.276001,182.585617 
	C761.251709,186.735580 761.255127,190.391861 766.958313,190.020752 
	C767.383667,189.993088 767.862976,190.795746 768.338196,191.231689 
	C765.150269,194.033463 745.171570,194.193405 740.367310,190.888657 
	C746.108521,190.160507 750.151672,188.256470 748.106018,181.633728 
z"/>
</svg>