<?xml version="1.0" encoding="UTF-8"?>
<svg version="1.1" xmlns="http://www.w3.org/2000/svg" width="794" height="295">
<path d="M0 0 C0.99 0.33 1.98 0.66 3 1 C3 1.66 3 2.32 3 3 C3.87785156 3.38285156 3.87785156 3.38285156 4.7734375 3.7734375 C7.22137407 5.12194993 8.71866736 6.5888745 10.625 8.625 C15.41281326 13.54780799 20.80672961 18.90336481 27 22 C27 22.66 27 23.32 27 24 C27.52722656 24.23976563 28.05445312 24.47953125 28.59765625 24.7265625 C31.06163566 26.03267191 33.32129299 27.53854155 35.61499023 29.12084961 C58.58151949 44.92514442 83.62188559 57.05377787 110 66 C110.70737305 66.24524414 111.41474609 66.49048828 112.14355469 66.74316406 C124.66280612 71.0540113 137.4560574 74.20992236 150.32299805 77.28491211 C151.00549118 77.45016891 151.68798431 77.61542572 152.39115906 77.78569031 C154.26748815 78.23961552 156.14541895 78.6869051 158.0234375 79.13378906 C161 80 161 80 164 82 C163.19039642 87.77282551 161.40720028 93.05400436 159.546875 98.5625 C158.87485217 102.78664351 159.71406875 104.45783626 162 108 C163.83883881 110.28728734 163.83883881 110.28728734 166.625 110.125 C167.40875 110.08375 168.1925 110.0425 169 110 C169.61875 108.329375 169.61875 108.329375 170.25 106.625 C171.25092751 104.3312078 171.79522055 103.16821169 173.75 101.5625 C178.0677918 100.48305205 181.637156 100.41149918 185.75 102.1875 C189.38336761 105.11437947 191.15524228 108.43830831 192 113 C191.68554487 110.66404762 191.3496418 108.33094534 191 106 C190.9175 105.236875 190.835 104.47375 190.75 103.6875 C190.10254932 101.81568645 190.10254932 101.81568645 188.0625 100.75 C183.65050467 99.66951135 179.50524063 99.26762098 175 100 C171.94112703 102.24733524 170.44282992 103.73963792 169.1875 107.3125 C169.125625 107.869375 169.06375 108.42625 169 109 C166.42452602 108.65660347 165.31105887 108.39993284 163.6875 106.3125 C162.70083986 102.99373406 162.75395488 101.25356225 164 98 C166.55087084 96.55540157 169.17084106 95.73467909 172 95 C170.02 95 168.04 95 166 95 C165 92 165 92 165.8984375 89.94921875 C170.01096935 83.6498644 174.91552458 78.33242684 182.4296875 76.36328125 C196.45036028 74.38163601 206.86537924 78.05038538 218.28515625 86.09375 C221.42386771 88.29762222 224.63659641 90.16541622 228 92 C227.938125 91.236875 227.87625 90.47375 227.8125 89.6875 C228 87 228 87 229.08203125 85.44140625 C231.85291479 83.35901108 234.48589469 82.97282729 237.875 82.25 C239.40785095 81.91019958 240.94037838 81.56893789 242.47265625 81.2265625 C243.33777832 81.03610352 244.20290039 80.84564453 245.09423828 80.64941406 C300.40126408 68.28874454 352.69643232 50.03828373 395 11 C399.47601795 6.948363 403.87443115 3.20348053 409 0 C408.33548511 18.60641696 397.16716387 35.82462725 386 50 C385.45859375 50.77214844 384.9171875 51.54429688 384.359375 52.33984375 C383.91078125 52.88769531 383.4621875 53.43554688 383 54 C382.34 54 381.68 54 381 54 C381 54.66 381 55.32 381 56 C380.34 56 379.68 56 379 56 C378.731875 56.639375 378.46375 57.27875 378.1875 57.9375 C377 60 377 60 374 61 C374 61.66 374 62.32 374 63 C372.18338416 64.62055612 370.37507947 66.09766328 368.4375 67.5625 C367.85033203 68.00722656 367.26316406 68.45195313 366.65820312 68.91015625 C353.30704853 78.8354074 337.80535703 87.73154766 322 93 C329.25827319 92.43297838 336.26016305 91.27452454 343.375 89.75 C344.40995605 89.53182617 345.44491211 89.31365234 346.51123047 89.08886719 C354.24509077 87.43490716 361.92516054 85.60090319 369.57958984 83.61230469 C373.70539928 82.54346027 377.77626195 81.62074106 382 81 C380.39572028 85.18507754 377.30727093 87.81292287 374.0625 90.75 C373.47984375 91.28077148 372.8971875 91.81154297 372.296875 92.35839844 C367.13969013 96.99031447 361.76408273 101.14374747 356 105 C355.06414062 105.64324219 354.12828125 106.28648438 353.1640625 106.94921875 C334.79231183 118.96878314 313.60301178 125.74741171 292 129 C293.01320313 129.33773437 294.02640625 129.67546875 295.0703125 130.0234375 C301.046875 132.015625 307.0234375 134.0078125 313 136 C312 138 312 138 308.81640625 139.21875 C307.40259745 139.65940886 305.98418427 140.08545281 304.5625 140.5 C303.80332275 140.72139648 303.04414551 140.94279297 302.26196289 141.17089844 C293.93463289 143.47127528 285.59458192 144.37717718 277 145 C276.2251123 145.05639648 275.45022461 145.11279297 274.65185547 145.17089844 C270.10323092 145.49126416 265.55375559 145.76424699 261 146 C261.85464844 146.40992188 262.70929688 146.81984375 263.58984375 147.2421875 C264.69457031 147.78101563 265.79929687 148.31984375 266.9375 148.875 C268.03964844 149.40867188 269.14179688 149.94234375 270.27734375 150.4921875 C273 152 273 152 274 154 C263.14379591 157.6187347 250.30793683 156.10235565 239 156 C239.825 156.763125 240.65 157.52625 241.5 158.3125 C244 161 244 161 244 164 C239.05 164.33 234.1 164.66 229 165 C229.33 166.98 229.66 168.96 230 171 C228.02 170.67 226.04 170.34 224 170 C224.53403094 185.78061416 231.50611409 195.93644879 241.3125 207.796875 C243 210 243 210 243 212 C241.4584364 212.02741912 239.91672526 212.04658248 238.375 212.0625 C237.51648438 212.07410156 236.65796875 212.08570313 235.7734375 212.09765625 C233 212 233 212 227 211 C226.67 217.27 226.34 223.54 226 230 C219.2858531 228.65717062 215.91639671 225.4342901 212 220 C211.66226563 221.14339844 211.32453125 222.28679687 210.9765625 223.46484375 C210.52644693 224.95585157 210.07590397 226.44673041 209.625 227.9375 C209.40328125 228.69224609 209.1815625 229.44699219 208.953125 230.22460938 C208.36037548 232.16847912 207.68548828 234.08686452 207 236 C206.34 236.33 205.68 236.66 205 237 C199.0924494 232.11099261 197.76155783 225.31095518 197 218 C196.62488281 218.61488281 196.24976563 219.22976562 195.86328125 219.86328125 C190.63465553 228.12108559 190.63465553 228.12108559 186 230 C185.01 230 184.02 230 183 230 C183 223.4 183 216.8 183 210 C180.7725 210.515625 178.545 211.03125 176.25 211.5625 C168.53571429 213.34821429 168.53571429 213.34821429 165 212 C165.66 210.68 166.32 209.36 167 208 C167.66 208 168.32 208 169 208 C169.25007812 207.44699219 169.50015625 206.89398438 169.7578125 206.32421875 C171.21902299 203.59019284 172.99194272 201.27468621 174.875 198.8125 C181.56445981 189.64322236 183.91039149 181.12874835 186 170 C183.69 170.33 181.38 170.66 179 171 C179.875 166.25 179.875 166.25 181 164 C175.39 164 169.78 164 164 164 C164 163.01 164 162.02 164 161 C166.475 160.01 166.475 160.01 169 159 C169 158.34 169 157.68 169 157 C167.62279785 156.92483154 167.62279785 156.92483154 166.21777344 156.84814453 C162.80307579 156.65757484 159.38902377 156.45913105 155.97509766 156.25537109 C154.4990419 156.16888725 153.0227999 156.08552204 151.54638672 156.00537109 C149.42097926 155.88943978 147.29649987 155.76221138 145.171875 155.6328125 C143.8940918 155.55949707 142.61630859 155.48618164 141.29980469 155.41064453 C138 155 138 155 134 153 C137.63 151.02 141.26 149.04 145 147 C145 146.67 145 146.34 145 146 C144.33693848 145.96036133 143.67387695 145.92072266 142.99072266 145.87988281 C120.57805544 144.47836519 120.57805544 144.47836519 109.8125 142.0625 C109.1023877 141.90491211 108.39227539 141.74732422 107.66064453 141.58496094 C103.448996 140.56698437 99.79811039 139.07330754 96 137 C97 135 97 135 100.7109375 133.74609375 C102.26337872 133.30196752 103.81820806 132.86612654 105.375 132.4375 C106.92455632 131.99897045 108.47403844 131.56017859 110.0234375 131.12109375 C110.71356934 130.9295874 111.40370117 130.73808105 112.11474609 130.54077148 C113.75604795 130.06997589 115.38013326 129.53995558 117 129 C116.4423999 128.90501221 115.8847998 128.81002441 115.31030273 128.7121582 C89.63790073 124.26860429 66.93860889 115.83009286 46 100 C44.77796875 99.12214844 44.77796875 99.12214844 43.53125 98.2265625 C42.7990625 97.69804688 42.066875 97.16953125 41.3125 96.625 C40.66925781 96.16351563 40.02601562 95.70203125 39.36328125 95.2265625 C38.91339844 94.82179688 38.46351562 94.41703125 38 94 C38 93.34 38 92.68 38 92 C37.12601563 91.61714844 37.12601563 91.61714844 36.234375 91.2265625 C33.78611777 89.88258913 32.18256752 88.38189704 30.25 86.375 C29.32960938 85.42753906 29.32960938 85.42753906 28.390625 84.4609375 C27.93171875 83.97882813 27.4728125 83.49671875 27 83 C30.56265714 81.77798739 33.10258521 82.21963107 36.75 83.00390625 C38.47996216 83.36911377 38.47996216 83.36911377 40.24487305 83.74169922 C41.48406494 84.01256348 42.72325684 84.28342773 44 84.5625 C45.27335205 84.83336426 46.5467041 85.10422852 47.85864258 85.38330078 C51.2242871 86.09931895 54.58757239 86.82582139 57.95025635 87.55560303 C62.61453968 88.56684821 67.28101867 89.56793123 71.94726562 90.57006836 C74.41146527 91.100386 76.87502668 91.6336794 79.33789062 92.17016602 C81.00174805 92.5306604 81.00174805 92.5306604 82.69921875 92.8984375 C83.67721436 93.11161621 84.65520996 93.32479492 85.6628418 93.54443359 C87.93031833 94.06377415 87.93031833 94.06377415 90 94 C89.29617187 93.68361572 88.59234375 93.36723145 87.8671875 93.04125977 C51.12758441 76.46707035 51.12758441 76.46707035 37.671875 64.3828125 C35.12317375 62.02588902 35.12317375 62.02588902 32.640625 60.3046875 C32.09921875 59.87414062 31.5578125 59.44359375 31 59 C31 58.34 31 57.68 31 57 C30.42765625 56.77054688 29.8553125 56.54109375 29.265625 56.3046875 C14.51014679 47.80756729 4.82781319 23.96686223 0.421875 8.0625 C-0.13486984 5.34063631 -0.21828628 2.76495949 0 0 Z M176 91 C176 91.66 176 92.32 176 93 C175.01 93.495 175.01 93.495 174 94 C179.01535052 93.67039784 179.01535052 93.67039784 183 91 C183 89.68 183 88.36 183 87 C189.32448699 85.93034128 195.64416673 84.86670454 202 84 C202 83.67 202 83.34 202 83 C191.66977426 82.4786615 183.52879192 83.47120808 176 91 Z " fill="#FEFEFE" transform="translate(15,15)"/>
<path d="M0 0 C1.58463493 0.88562431 3.12329389 1.85317684 4.64453125 2.84375 C4.0418634 7.35102647 2.27853331 10.7025463 0.08203125 14.65625 C-0.24732422 15.25373047 -0.57667969 15.85121094 -0.91601562 16.46679688 C-1.72320142 17.92908998 -2.53851792 19.3868899 -3.35546875 20.84375 C-9.35546875 18.84375 -9.35546875 18.84375 -11.84765625 17.9921875 C-18.06287231 15.9747895 -23.29624528 14.90700612 -29.79296875 16.40625 C-31.67076124 17.90344702 -31.67076124 17.90344702 -32.48046875 21.15625 C-32.77046451 25.00415952 -32.77046451 25.00415952 -29.828125 27.3671875 C-26.37435455 30.04066542 -22.71062848 31.57986084 -18.66796875 33.15625 C-8.15103651 37.5252876 -1.07533871 42.43593206 5.64453125 51.84375 C5.97453125 45.24375 6.30453125 38.64375 6.64453125 31.84375 C13.57453125 31.84375 20.50453125 31.84375 27.64453125 31.84375 C27.97453125 37.78375 28.30453125 43.72375 28.64453125 49.84375 C29.96453125 47.20375 31.28453125 44.56375 32.64453125 41.84375 C36.62865271 36.03831587 41.87093051 32.3736261 48.5703125 30.2265625 C58.32109391 28.42698326 65.98201256 30.51249066 74.64453125 34.84375 C74.64453125 33.85375 74.64453125 32.86375 74.64453125 31.84375 C81.90453125 31.84375 89.16453125 31.84375 96.64453125 31.84375 C96.68987761 39.90249581 96.72650201 47.96114091 96.74815559 56.01998043 C96.75855291 59.7627992 96.7726372 63.50552547 96.79541016 67.24829102 C96.81728421 70.86633261 96.82913028 74.48428572 96.83428574 78.10238838 C96.83795554 79.47655185 96.8451211 80.85071097 96.85599136 82.22483635 C96.94497194 93.94883992 96.48386008 103.58072697 88.64453125 112.84375 C80.17074165 120.82141609 69.84589845 121.82159101 58.64453125 121.84375 C48.67849799 121.3637107 40.01042225 119.47732717 32.921875 112.03515625 C30.37979382 108.74248843 29.64453125 107.06696346 29.64453125 102.84375 C32.07671184 101.64411357 34.51423703 100.45890562 36.95703125 99.28125 C37.64732422 98.93900391 38.33761719 98.59675781 39.04882812 98.24414062 C44.3046875 95.73046875 44.3046875 95.73046875 47.64453125 96.84375 C47.64453125 97.50375 47.64453125 98.16375 47.64453125 98.84375 C48.82015625 99.3078125 48.82015625 99.3078125 50.01953125 99.78125 C52.64453125 100.84375 52.64453125 100.84375 54.64453125 101.84375 C56.57812711 101.99226844 58.51795222 102.06505833 60.45703125 102.09375 C61.49472656 102.11953125 62.53242187 102.1453125 63.6015625 102.171875 C67.04200677 101.80089 68.8671846 100.86498626 71.64453125 98.84375 C73.97740413 95.62216364 73.82136882 92.73417645 73.64453125 88.84375 C72.44828125 89.33875 71.25203125 89.83375 70.01953125 90.34375 C61.80736013 93.06386977 51.85314252 93.23646772 43.73828125 90.01171875 C36.39818303 85.91714903 31.80396386 80.53628157 28.64453125 72.84375 C28.65613281 73.98714844 28.66773438 75.13054687 28.6796875 76.30859375 C28.68906413 77.79947754 28.69816446 79.29036309 28.70703125 80.78125 C28.71541016 81.53599609 28.72378906 82.29074219 28.73242188 83.06835938 C28.74105566 84.99369313 28.69677458 86.91910581 28.64453125 88.84375 C27.64453125 89.84375 27.64453125 89.84375 25.60327148 89.95727539 C24.72872314 89.95203857 23.8541748 89.94680176 22.953125 89.94140625 C22.00888672 89.93818359 21.06464844 89.93496094 20.09179688 89.93164062 C19.09857422 89.92326172 18.10535156 89.91488281 17.08203125 89.90625 C16.08494141 89.90173828 15.08785156 89.89722656 14.06054688 89.89257812 C11.58851638 89.88075023 9.11651653 89.86281415 6.64453125 89.84375 C6.31453125 84.89375 5.98453125 79.94375 5.64453125 74.84375 C4.86078125 76.205 4.07703125 77.56625 3.26953125 78.96875 C-2.11570906 86.87871037 -9.04528356 90.02917117 -18.29296875 91.90625 C-33.48792532 94.45630984 -47.31439535 90.60882633 -60.35546875 82.84375 C-60.68546875 85.15375 -61.01546875 87.46375 -61.35546875 89.84375 C-68.28546875 89.84375 -75.21546875 89.84375 -82.35546875 89.84375 C-82.39285156 87.30300781 -82.43023437 84.76226562 -82.46875 82.14453125 C-82.51500229 79.67545108 -82.56622236 77.20652028 -82.61791992 74.73754883 C-82.65111044 73.02572762 -82.67916064 71.31379852 -82.7019043 69.60180664 C-82.73555907 67.13641521 -82.78787849 64.67200719 -82.84375 62.20703125 C-82.85013992 61.44538162 -82.85652985 60.68373199 -82.8631134 59.89900208 C-82.98650995 55.40822795 -83.50120794 52.37436012 -86.35546875 48.84375 C-90.38599566 47.06101694 -92.8000033 46.76179608 -97.16796875 47.40625 C-100.42891883 48.49979147 -100.42891883 48.49979147 -101.52880859 50.91088867 C-102.59136163 54.68066115 -102.71057996 58.31997211 -102.76953125 62.20703125 C-102.7888974 62.99901413 -102.80826355 63.79099701 -102.82821655 64.60697937 C-102.88774107 67.12329519 -102.93428833 69.63965744 -102.98046875 72.15625 C-103.01867356 73.8678579 -103.05772674 75.57944709 -103.09765625 77.29101562 C-103.1950091 81.4751601 -103.27479092 85.65911815 -103.35546875 89.84375 C-110.28546875 89.84375 -117.21546875 89.84375 -124.35546875 89.84375 C-124.35546875 70.70375 -124.35546875 51.56375 -124.35546875 31.84375 C-117.42546875 31.84375 -110.49546875 31.84375 -103.35546875 31.84375 C-103.02546875 32.83375 -102.69546875 33.82375 -102.35546875 34.84375 C-100.74671875 33.8846875 -100.74671875 33.8846875 -99.10546875 32.90625 C-92.89078972 29.20134519 -85.93387167 28.84748953 -78.9140625 30.375 C-71.4601442 32.69567845 -66.27036201 35.88393977 -62.35546875 42.84375 C-61.27196327 46.18775774 -61.15917387 49.42148657 -61.0390625 52.921875 C-60.99716797 54.08203125 -60.95527344 55.2421875 -60.91210938 56.4375 C-60.87279297 57.6440625 -60.83347656 58.850625 -60.79296875 60.09375 C-60.74978516 61.31578125 -60.70660156 62.5378125 -60.66210938 63.796875 C-60.55609592 66.81236881 -60.45528435 69.82804468 -60.35546875 72.84375 C-58.04546875 69.21375 -55.73546875 65.58375 -53.35546875 61.84375 C-49.31092471 62.85488601 -45.9619863 64.44637644 -42.29296875 66.34375 C-35.84780409 69.65612565 -30.80451466 72.01755633 -23.37890625 70.41796875 C-21.18309706 69.76223967 -21.18309706 69.76223967 -18.35546875 67.84375 C-16.85386427 64.49926712 -16.85386427 64.49926712 -17.35546875 60.84375 C-20.98768098 56.40980186 -24.96319337 54.29760577 -30.04296875 51.96875 C-40.59903946 46.88744524 -49.53541015 42.02958986 -54.66796875 31.03125 C-56.47232571 22.665595 -55.69634858 15.30616139 -51.35546875 7.84375 C-38.70397208 -8.3904714 -17.4480635 -8.56488689 0 0 Z M51.33203125 52.90625 C48.86618808 57.19864367 48.87047534 61.00590059 49.64453125 65.84375 C51.71122175 69.977131 53.39162008 72.1318381 57.64453125 73.84375 C61.70095686 74.4796583 65.82988894 74.77329126 69.55859375 72.86328125 C72.34775845 70.63057551 74.63282904 68.2835375 75.64453125 64.84375 C76.12818281 59.62031319 75.56799402 56.22894415 72.64453125 51.84375 C69.39706535 48.97389641 66.87355806 47.59248607 62.58203125 47.40625 C57.3752233 47.98478422 55.15856425 49.49339624 51.33203125 52.90625 Z " fill="#FEFEFE" transform="translate(541.35546875,148.15625)"/>
<path d="M0 0 C3.31248187 -0.02888146 6.62493167 -0.04675799 9.9375 -0.0625 C10.88302734 -0.07087891 11.82855469 -0.07925781 12.80273438 -0.08789062 C14.15141602 -0.09272461 14.15141602 -0.09272461 15.52734375 -0.09765625 C16.77632446 -0.10551147 16.77632446 -0.10551147 18.05053711 -0.11352539 C20 0 20 0 21 1 C21.16041193 4.10085221 21.25963402 7.18187579 21.31640625 10.28515625 C21.33718735 11.21597519 21.35796844 12.14679413 21.37937927 13.1058197 C21.44497931 16.09130182 21.50380802 19.07687484 21.5625 22.0625 C21.6056753 24.08138976 21.64928925 26.1002702 21.69335938 28.11914062 C21.80067129 33.07933297 21.90190888 38.03961709 22 43 C22.6587915 42.64558838 23.31758301 42.29117676 23.99633789 41.92602539 C24.87539795 41.46703857 25.75445801 41.00805176 26.66015625 40.53515625 C27.95771851 39.84885132 27.95771851 39.84885132 29.28149414 39.14868164 C36.81314199 35.96624759 44.30227116 37.91829174 51.60546875 40.84375 C54.43440058 42.2097595 56.73947038 43.81741968 59 46 C59.33 44.02 59.66 42.04 60 40 C63.465 39.505 63.465 39.505 67 39 C67.33 32.07 67.66 25.14 68 18 C74.93 18 81.86 18 89 18 C89 24.93 89 31.86 89 39 C92.96 39.33 96.92 39.66 101 40 C101 45.28 101 50.56 101 56 C97.04 56 93.08 56 89 56 C89.14062311 59.43778631 89.28726929 62.87513171 89.4375 66.3125 C89.47681641 67.28896484 89.51613281 68.26542969 89.55664062 69.27148438 C89.59853516 70.20927734 89.64042969 71.14707031 89.68359375 72.11328125 C89.72025146 72.97735596 89.75690918 73.84143066 89.79467773 74.73168945 C89.92747354 77.1647826 89.92747354 77.1647826 91 80 C92.27875 80 93.5575 80 94.875 80 C96.91666667 80 98.95833333 80 101 80 C101.7425 79.21625 102.485 78.4325 103.25 77.625 C106.24961123 74.76173473 107.96472599 73.8070548 112 73 C117.32321702 73.18677954 120.18093455 74.29005071 124 78 C126.97794964 82.46692447 126.61357248 86.76218611 126 92 C123.95108213 96.17101137 122.26517695 98.27045118 118 100 C113.55408439 100.55882119 109.64948768 100.20156514 105.375 98.875 C101.84330651 97.95937576 100.4926127 98.31997262 97.14453125 99.46875 C90.15734468 101.19963775 81.93940842 101.1467509 75.65234375 97.3984375 C70.67608431 93.1868515 68.87031059 88.30596784 68 82 C67.92266151 79.91003127 67.89199042 77.81793605 67.90234375 75.7265625 C67.90717773 73.99599609 67.90717773 73.99599609 67.91210938 72.23046875 C67.92467773 70.44576172 67.92467773 70.44576172 67.9375 68.625 C67.94201172 67.41199219 67.94652344 66.19898438 67.95117188 64.94921875 C67.96291646 61.96609493 67.9793416 58.98307321 68 56 C66.35 56 64.7 56 63 56 C63 69.86 63 83.72 63 98 C56.07 98 49.14 98 42 98 C41.96261719 95.45925781 41.92523437 92.91851562 41.88671875 90.30078125 C41.84046646 87.83170108 41.78924639 85.36277028 41.73754883 82.89379883 C41.70435831 81.18197762 41.67630811 79.47004852 41.65356445 77.75805664 C41.61990968 75.29266521 41.56759026 72.82825719 41.51171875 70.36328125 C41.50532883 69.60163162 41.4989389 68.83998199 41.49235535 68.05525208 C41.3689588 63.56447795 40.85426081 60.53061012 38 57 C33.94269259 55.20542172 31.57615154 54.90554893 27.1875 55.625 C24.05019817 56.66671809 24.05019817 56.66671809 22.82666016 58.55566406 C21.61015198 62.15273432 21.64098178 65.72610294 21.5859375 69.484375 C21.56657135 70.29996887 21.5472052 71.11556274 21.5272522 71.95587158 C21.46760425 74.55380892 21.42113058 77.15179093 21.375 79.75 C21.33680658 81.51434194 21.29775405 83.27866551 21.2578125 85.04296875 C21.16030176 89.36188207 21.08061737 93.68060619 21 98 C13.74 98 6.48 98 -1 98 C-1.0225588 85.51769651 -1.04091962 73.03540647 -1.05181217 60.55308723 C-1.05703905 54.75755178 -1.06413319 48.96203094 -1.07543945 43.16650391 C-1.08627521 37.57741018 -1.09227831 31.98833056 -1.09487724 26.39922714 C-1.09673024 24.2629054 -1.10034848 22.12658447 -1.10573006 19.99026871 C-1.1129496 17.00667887 -1.11399055 14.0231479 -1.11352539 11.03955078 C-1.11712067 10.14907043 -1.12071594 9.25859009 -1.12442017 8.34112549 C-1.11405216 2.22810432 -1.11405216 2.22810432 0 0 Z " fill="#FEFEFE" transform="translate(641,140)"/>
<path d="M0 0 C13.303125 -0.0928125 13.303125 -0.0928125 26.875 -0.1875 C29.67597168 -0.21481201 32.47694336 -0.24212402 35.36279297 -0.27026367 C37.57258675 -0.27902205 39.78238535 -0.28666751 41.9921875 -0.29296875 C43.1479126 -0.30831665 44.3036377 -0.32366455 45.49438477 -0.33947754 C47.1385437 -0.34002136 47.1385437 -0.34002136 48.81591797 -0.34057617 C50.24821243 -0.35056892 50.24821243 -0.35056892 51.70944214 -0.36076355 C52.46532623 -0.24171158 53.22121033 -0.12265961 54 0 C54.66 0.99 55.32 1.98 56 3 C56.55816406 2.51402344 57.11632812 2.02804688 57.69140625 1.52734375 C61.55034291 -1.02569218 65.53134954 -0.66631417 70 0 C73.39488422 2.05107588 74.80323081 3.70484621 77 7 C77.66624845 11.07463524 77.94496094 15.24356703 75.94921875 18.953125 C74.18683214 21.0950226 72.49210321 22.7539484 70 24 C67.7578125 24.203125 67.7578125 24.203125 65.125 24.25 C64.26132812 24.27578125 63.39765625 24.3015625 62.5078125 24.328125 C60 24 60 24 58.31884766 22.49780273 C55.08541519 20.40924639 52.11000396 20.62489893 48.390625 20.70703125 C47.30041046 20.71339851 47.30041046 20.71339851 46.18817139 20.71989441 C43.87506496 20.7366387 41.56284145 20.77428115 39.25 20.8125 C37.67839803 20.82755242 36.10678236 20.84123985 34.53515625 20.85351562 C30.68949337 20.8839723 26.84573066 20.94269607 23 21 C23 26.28 23 31.56 23 37 C26.12275391 37.09087891 26.12275391 37.09087891 29.30859375 37.18359375 C31.31747502 37.24615407 33.32635541 37.30874775 35.33520508 37.37231445 C36.73489199 37.41571434 38.13463359 37.45738564 39.53442383 37.49731445 C41.54261495 37.55489445 43.55061149 37.61914 45.55859375 37.68359375 C46.76829834 37.72025146 47.97800293 37.75690918 49.22436523 37.79467773 C52 38 52 38 53 39 C53.07325168 41.86267567 53.09238205 44.700719 53.0625 47.5625 C53.05798828 48.36880859 53.05347656 49.17511719 53.04882812 50.00585938 C53.03700518 52.00393756 53.01906914 54.00197783 53 56 C49.11865969 57.81359313 46.09306483 58.2373701 41.82421875 58.1953125 C40.78096436 58.19031738 39.73770996 58.18532227 38.6628418 58.18017578 C37.350979 58.16196777 36.03911621 58.14375977 34.6875 58.125 C30.500625 58.08375 26.31375 58.0425 22 58 C22 69.88 22 81.76 22 94 C14.74 94 7.48 94 0 94 C0 62.98 0 31.96 0 0 Z " fill="#FEFEFE" transform="translate(338,144)"/>
<path d="M0 0 C6.93 0 13.86 0 21 0 C21 19.14 21 38.28 21 58 C14.07 58 7.14 58 0 58 C0 38.86 0 19.72 0 0 Z " fill="#FFFFFF" transform="translate(392,180)"/>
<path d="M0 0 C2.94705087 2.3576407 4.90815443 4.33930489 5.65625 8.1171875 C5.71178988 12.57426247 5.71766696 15.7626954 2.8125 19.3125 C-1.21871632 23.0557723 -3.90730059 23.14037018 -9.26171875 23.109375 C-13.37118504 22.53039966 -15.02599577 20.75085071 -17.8125 17.75 C-19.66360583 14.04778834 -19.27704795 9.79093083 -18.8125 5.75 C-14.63029059 -1.41950185 -7.56298451 -3.36132645 0 0 Z " fill="#FFFFFF" transform="translate(565.8125,145.25)"/>
</svg>
