<?xml version="1.0" encoding="UTF-8"?>
<svg version="1.1" xmlns="http://www.w3.org/2000/svg" width="831" height="290">
<path d="M0 0 C5.04991693 4.28145131 9.97687354 8.67717229 14.86328125 13.14453125 C16.85953442 15.03342401 16.85953442 15.03342401 19 16 C19 16.66 19 17.32 19 18 C19.5868457 18.27835693 20.17369141 18.55671387 20.77832031 18.84350586 C22.86521303 19.92983672 24.65689648 21.10915584 26.546875 22.50390625 C36.03530136 29.40996013 45.62706295 35.51981 56 41 C56.90806396 41.4937915 56.90806396 41.4937915 57.83447266 41.99755859 C81.66293871 54.93705203 108.06535124 62.84447092 134.23999023 69.49145508 C139.81609406 70.90804703 139.81609406 70.90804703 142 72 C142.30165828 75.9215576 141.80447112 78.80881302 140.4375 82.4375 C138.94151695 86.64185047 138.77204949 89.61446246 140 94 C141.16884106 96.00484776 141.16884106 96.00484776 143 97 C144.32 97 145.64 97 147 97 C147 96.34 147 95.68 147 95 C145.68 95 144.36 95 143 95 C142 94 142 94 141.75 90.5625 C141.8325 89.386875 141.915 88.21125 142 87 C142.99 86.34 143.98 85.68 145 85 C144.67 84.67 144.34 84.34 144 84 C143.68956478 81.08782199 143.7327775 79.46140991 145.21484375 76.90234375 C150.14337065 71.28091737 154.90285549 67.70838909 162.4453125 66.66015625 C174.46576292 66.18913547 183.94180919 71.47401431 193.1953125 78.71875 C194.90292402 80.19296615 194.90292402 80.19296615 197 80 C197.3403125 78.824375 197.3403125 78.824375 197.6875 77.625 C199 75 199 75 201.0390625 73.94140625 C204.8761819 72.72142502 208.73038138 72.03047646 212.6875 71.3125 C229.58952327 68.06253402 246.17286857 63.49615093 262.4375 57.875 C263.34153564 57.56272461 264.24557129 57.25044922 265.17700195 56.92871094 C276.58951602 52.86725774 287.38246588 47.43779512 298.15625 41.94042969 C299.73670154 41.13429895 301.3210936 40.33590188 302.90625 39.5390625 C314.85400363 33.31327522 325.86805085 25.37592814 335.92724609 16.44067383 C338.30378439 14.3417468 339.95062451 13.0164585 343 12 C343 11.34 343 10.68 343 10 C344.609375 8.34375 344.609375 8.34375 346.75 6.5 C347.44609375 5.8915625 348.1421875 5.283125 348.859375 4.65625 C350.84460792 3.12023037 352.71872045 2.0276034 355 1 C352.12209362 24.50290213 337.44937003 45.87466401 319.16601562 60.46337891 C307.45573465 69.28219533 294.52010003 76.37395057 281 82 C291.46388981 80.76604587 301.39609153 78.55575917 311.5625 75.875 C313.69852708 75.31373997 315.83504501 74.75488619 317.97361755 74.20339966 C319.88965333 73.70915899 321.80342711 73.20617297 323.71704102 72.70263672 C326.61384793 72.08264636 329.0557017 71.85015407 332 72 C331.06409496 73.1055189 330.12620142 74.20935453 329.1875 75.3125 C328.66542969 75.92738281 328.14335937 76.54226562 327.60546875 77.17578125 C324.6626898 80.51952278 324.6626898 80.51952278 323 82 C322.34 82 321.68 82 321 82 C321 82.66 321 83.32 321 84 C301.55635098 100.88619609 278.85020566 108.92852946 254 114 C259.28 115.65 264.56 117.3 270 119 C270 119.99 270 120.98 270 122 C260.59182335 125.31971244 251.60682086 126.89704879 241.6875 127.75 C240.34949153 127.87504752 239.0115992 128.00134413 237.67382812 128.12890625 C234.45013576 128.43149109 231.22585836 128.72163783 228 129 C230.97 130.32 233.94 131.64 237 133 C237 133.99 237 134.98 237 136 C227.76 136.66 218.52 137.32 209 138 C209.99 139.32 210.98 140.64 212 142 C212 142.66 212 143.32 212 144 C207.38 144 202.76 144 198 144 C198.66 145.32 199.32 146.64 200 148 C200 148.99 200 149.98 200 151 C198.02 150.67 196.04 150.34 194 150 C195.64014109 164.46751318 202.62410169 173.56649221 211 185 C210.34 185.66 209.68 186.32 209 187 C204.60552035 186.64979725 200.34657385 185.76704244 196 185 C196 190.61 196 196.22 196 202 C189.14159939 199.71386646 188.19207188 198.3898067 184 193 C182.68 197.62 181.36 202.24 180 207 C178.68 207 177.36 207 176 207 C173.18467181 201.95859836 171.4811491 197.77378925 171 192 C170.63648438 192.55429688 170.27296875 193.10859375 169.8984375 193.6796875 C169.39570313 194.40414062 168.89296875 195.12859375 168.375 195.875 C167.88773438 196.59429687 167.40046875 197.31359375 166.8984375 198.0546875 C165 200 165 200 159 202 C158.67 196.72 158.34 191.44 158 186 C153.38 186.33 148.76 186.66 144 187 C145.09003604 182.63985586 146.33156644 181.18964474 149.25 177.875 C156.58720809 169.06801732 159.69014579 161.37813658 161 150 C159.02 150.33 157.04 150.66 155 151 C155.875 146.25 155.875 146.25 157 144 C152.05 144 147.1 144 142 144 C142.33 143.01 142.66 142.02 143 141 C145.0625 140.3125 145.0625 140.3125 147 140 C147 139.34 147 138.68 147 138 C137.1 137.34 127.2 136.68 117 136 C118 133 118 133 120.06640625 131.83203125 C120.89011719 131.49558594 121.71382813 131.15914062 122.5625 130.8125 C123.38878906 130.46832031 124.21507812 130.12414062 125.06640625 129.76953125 C125.70449219 129.51558594 126.34257812 129.26164063 127 129 C126.18958252 128.93006836 125.37916504 128.86013672 124.54418945 128.78808594 C121.46964533 128.51592107 118.39659906 128.230976 115.32397461 127.93798828 C113.36724117 127.755116 111.40920656 127.58633794 109.45117188 127.41796875 C101.11189678 126.61162663 92.68506092 125.53842285 85 122 C84.67 121.01 84.34 120.02 84 119 C89.94 117.35 95.88 115.7 102 114 C100.57171875 113.731875 99.1434375 113.46375 97.671875 113.1875 C78.31845595 109.37983275 61.06301044 103.62454703 45 92 C43.77796875 91.12214844 43.77796875 91.12214844 42.53125 90.2265625 C36.37587126 85.61002845 30.38199926 80.502717 25 75 C25 74.34 25 73.68 25 73 C33.61639095 73.70673768 41.94772926 75.5952029 50.375 77.4375 C53.25729132 78.06362414 56.14014887 78.68707898 59.0234375 79.30859375 C59.71201843 79.45726898 60.40059937 79.60594421 61.11004639 79.75912476 C66.7195532 80.96101762 72.34596095 82.03088771 78 83 C77.44127197 82.75354736 76.88254395 82.50709473 76.30688477 82.25317383 C73.72346806 81.11064719 71.14299389 79.96161196 68.5625 78.8125 C67.24475586 78.23145508 67.24475586 78.23145508 65.90039062 77.63867188 C50.40073429 70.71816111 37.17095061 61.79001319 25 50 C24.39285156 49.43925781 23.78570312 48.87851563 23.16015625 48.30078125 C22 47 22 47 22 45 C21.34 45 20.68 45 20 45 C9.81690236 33.51346587 -0.82291681 15.82904683 0 0 Z M164.75 74 C163.5125 74.33 162.275 74.66 161 75 C163.967892 75.90239959 166.18926456 76.02161032 169.25 75.5625 C170.4875 75.376875 171.725 75.19125 173 75 C173 74.34 173 73.68 173 73 C169.80107719 73 167.74591845 73.20108841 164.75 74 Z M153.8125 79.5 C152.73935547 80.47453125 152.73935547 80.47453125 151.64453125 81.46875 C151.10183594 81.9740625 150.55914062 82.479375 150 83 C152.02259692 84.28246153 152.02259692 84.28246153 154.5 83.375 C157.6166665 81.66083343 157.90361533 80.28915401 159 77 C159.66 76.67 160.32 76.34 161 76 C157.22089522 76 156.53893899 76.99703962 153.8125 79.5 Z M150 89 C153.09783987 90.17454633 153.09783987 90.17454633 156.9375 90.25 C160.2625655 90.63436537 160.84265856 90.84679912 163.375 93.3125 C164.70370109 95.50996719 165.95745403 97.65427157 167 100 C166.87625 98.741875 166.7525 97.48375 166.625 96.1875 C166.55539063 95.47980469 166.48578125 94.77210937 166.4140625 94.04296875 C166.07334609 91.70011858 166.07334609 91.70011858 164 89 C158.8467438 86.4233719 155.19413113 86.69149728 150 89 Z " fill="#FEFEFE" transform="translate(16,17)"/>
<path d="M0 0 C3.24952748 -0.14546783 6.49821713 -0.2341168 9.75 -0.3125 C10.67039062 -0.35439453 11.59078125 -0.39628906 12.5390625 -0.43945312 C19.39521656 -0.56365881 19.39521656 -0.56365881 22.5617218 2.38752747 C23.27366951 3.68070137 23.27366951 3.68070137 24 5 C24.41660889 5.69697998 24.83321777 6.39395996 25.26245117 7.11206055 C25.62314697 7.80082275 25.98384277 8.48958496 26.35546875 9.19921875 C29.08837372 14.24450151 32.16142378 19.02031631 35.3125 23.8125 C35.84294922 24.62525391 36.37339844 25.43800781 36.91992188 26.27539062 C41.2378122 32.87891871 45.62319819 39.43479729 50 46 C50.33 30.82 50.66 15.64 51 0 C57.6 0 64.2 0 71 0 C71.02255102 10.54381693 71.04091508 21.08761797 71.05181217 31.63145351 C71.057041 36.52685374 71.06413864 41.42223668 71.07543945 46.31762695 C71.08626834 51.03787978 71.09227684 55.75811592 71.09487724 60.4783802 C71.09673149 62.28338954 71.10035209 64.08839792 71.10573006 65.89340019 C71.11294052 68.41259644 71.11399094 70.9317229 71.11352539 73.45092773 C71.11712067 74.20474228 71.12071594 74.95855682 71.12442017 75.73521423 C71.11405216 80.88594784 71.11405216 80.88594784 70 82 C66.95184262 82.44335299 63.88784636 82.51118259 60.8125 82.625 C59.96107422 82.69589844 59.10964844 82.76679688 58.23242188 82.83984375 C55.56965061 82.91809998 53.54058151 82.81604034 51 82 C48.31829916 79.37749364 46.75739981 76.28672385 45 73 C43.91432104 71.28190109 42.8149704 69.57237635 41.703125 67.87109375 C40.55107255 66.0605386 39.40004139 64.24933322 38.25 62.4375 C37.693125 61.56287109 37.13625 60.68824219 36.5625 59.78710938 C31.32887482 51.55357966 26.16383118 43.27739437 21 35 C20.98969254 35.57407089 20.97938507 36.14814178 20.96876526 36.73960876 C20.86092566 42.69265662 20.74631023 48.64554615 20.62768555 54.59838867 C20.58426412 56.82263896 20.54259455 59.04692415 20.50268555 61.27124023 C20.44515694 64.46088195 20.38141316 67.6503468 20.31640625 70.83984375 C20.29133751 72.34139259 20.29133751 72.34139259 20.26576233 73.87327576 C20.24581711 74.79415482 20.22587189 75.71503387 20.20532227 76.66381836 C20.18977798 77.47878281 20.1742337 78.29374725 20.15821838 79.13340759 C20 81 20 81 19 82 C17.66956375 82.0983721 16.33406656 82.13078592 15 82.1328125 C14.195625 82.13410156 13.39125 82.13539063 12.5625 82.13671875 C11.716875 82.13285156 10.87125 82.12898438 10 82.125 C9.154375 82.12886719 8.30875 82.13273437 7.4375 82.13671875 C6.633125 82.13542969 5.82875 82.13414062 5 82.1328125 C4.2575 82.13168457 3.515 82.13055664 2.75 82.12939453 C1 82 1 82 0 81 C-0.09504251 78.47458998 -0.12557158 75.97662874 -0.11352539 73.45092773 C-0.11367142 72.66074249 -0.11381744 71.87055725 -0.1139679 71.056427 C-0.11326857 68.43212178 -0.10547527 65.80788664 -0.09765625 63.18359375 C-0.09579214 61.36898335 -0.0943682 59.55437244 -0.09336853 57.73976135 C-0.08954279 52.9540977 -0.07971204 48.1684642 -0.06866455 43.3828125 C-0.05845163 38.50325936 -0.05387117 33.62370136 -0.04882812 28.74414062 C-0.03808982 19.16274714 -0.02101273 9.58137607 0 0 Z " fill="#FEFEFE" transform="translate(341,169)"/>
<path d="M0 0 C7.24731717 5.01881396 7.24731717 5.01881396 8.76953125 8.12890625 C8.7734375 10.09375 8.7734375 10.09375 7.48046875 11.83984375 C6.85527344 12.39800781 6.23007812 12.95617187 5.5859375 13.53125 C2.69072402 16.21800811 0.1660899 18.93544883 -2.2265625 22.09375 C-4.1640625 21.28125 -4.1640625 21.28125 -6.2265625 20.09375 C-6.7215625 18.60875 -6.7215625 18.60875 -7.2265625 17.09375 C-12.52970288 13.62631206 -19.01689348 12.53931527 -25.2265625 13.09375 C-30.70314166 14.79337802 -34.22837148 17.21066683 -37.2265625 22.09375 C-41.48090325 30.65561077 -42.05260218 39.00459536 -39.2265625 48.09375 C-36.32206849 53.59154222 -32.23136188 58.09215021 -26.2265625 60.09375 C-19.70449082 60.90466477 -15.26519747 60.19593329 -9.8203125 56.48046875 C-6.66604016 53.73594257 -5.87148375 51.07076436 -5.2265625 47.09375 C-6.44214844 47.10535156 -7.65773438 47.11695313 -8.91015625 47.12890625 C-10.49479014 47.13828278 -12.07942568 47.14738313 -13.6640625 47.15625 C-14.86772461 47.16881836 -14.86772461 47.16881836 -16.09570312 47.18164062 C-18.13951471 47.1902643 -20.18340152 47.1460315 -22.2265625 47.09375 C-23.2265625 46.09375 -23.2265625 46.09375 -23.359375 42.96875 C-23.35679687 41.69 -23.35421875 40.41125 -23.3515625 39.09375 C-23.35542969 37.175625 -23.35542969 37.175625 -23.359375 35.21875 C-23.2265625 32.09375 -23.2265625 32.09375 -22.2265625 31.09375 C-19.48762165 31.00516354 -16.7740298 30.97851521 -14.03515625 30.99609375 C-13.21531754 30.9975087 -12.39547882 30.99892365 -11.55079651 31.00038147 C-8.92184868 31.00599711 -6.29298477 31.01855221 -3.6640625 31.03125 C-1.88606893 31.03626299 -0.10807404 31.04082624 1.66992188 31.04492188 C6.03779295 31.05597161 10.40560098 31.07324669 14.7734375 31.09375 C18.1465766 37.84002819 15.80058811 49.09850491 13.7734375 56.09375 C11.22442241 62.19214838 7.75220125 66.77882142 2.7734375 71.09375 C2.1134375 71.09375 1.4534375 71.09375 0.7734375 71.09375 C0.7734375 71.75375 0.7734375 72.41375 0.7734375 73.09375 C-0.97458396 73.91049796 -2.72506439 74.72198451 -4.4765625 75.53125 C-5.45109375 75.98371094 -6.425625 76.43617188 -7.4296875 76.90234375 C-15.51490339 80.34646505 -26.75410489 80.5036663 -35.1640625 77.96875 C-45.90078807 73.59225615 -54.11902947 66.17024243 -59.18359375 55.81640625 C-61.6670301 49.33342821 -62.55172672 43.47127568 -62.4765625 36.59375 C-62.48429688 35.88605469 -62.49203125 35.17835938 -62.5 34.44921875 C-62.45935875 23.33383557 -58.67773529 13.40577477 -51.0390625 5.28125 C-36.99793927 -7.94217055 -16.55302226 -9.77950952 0 0 Z " fill="#FFFFFF" transform="translate(607.2265625,172.90625)"/>
<path d="M0 0 C6.6 0 13.2 0 20 0 C20.495 15.345 20.495 15.345 21 31 C28.59 31 36.18 31 44 31 C44.33 20.77 44.66 10.54 45 0 C51.27 0 57.54 0 64 0 C64.02255102 10.54381693 64.04091508 21.08761797 64.05181217 31.63145351 C64.057041 36.52685374 64.06413864 41.42223668 64.07543945 46.31762695 C64.08626834 51.03787978 64.09227684 55.75811592 64.09487724 60.4783802 C64.09673149 62.28338954 64.10035209 64.08839792 64.10573006 65.89340019 C64.11294052 68.41259644 64.11399094 70.9317229 64.11352539 73.45092773 C64.11712067 74.20474228 64.12071594 74.95855682 64.12442017 75.73521423 C64.11405216 80.88594784 64.11405216 80.88594784 63 82 C61.65732587 82.08631874 60.31025678 82.10706473 58.96484375 82.09765625 C57.87224243 82.09390991 57.87224243 82.09390991 56.75756836 82.09008789 C55.8269458 82.08098389 54.89632324 82.07187988 53.9375 82.0625 C49.5134375 82.0315625 49.5134375 82.0315625 45 82 C44.67 71.44 44.34 60.88 44 50 C36.08 49.67 28.16 49.34 20 49 C20.01160156 51.29839844 20.02320313 53.59679687 20.03515625 55.96484375 C20.04294709 58.18220888 20.04902369 60.39957251 20.05493164 62.61694336 C20.0599714 64.16219766 20.0668032 65.70744716 20.07543945 67.25268555 C20.08752076 69.46925029 20.09323173 71.68575218 20.09765625 73.90234375 C20.10281754 74.5971434 20.10797882 75.29194305 20.11329651 76.00779724 C20.11349277 77.6722933 20.06189129 79.33665499 20 81 C18.4779041 82.5220959 17.11789918 82.12959521 15 82.1328125 C14.195625 82.13410156 13.39125 82.13539063 12.5625 82.13671875 C11.716875 82.13285156 10.87125 82.12898438 10 82.125 C9.154375 82.12886719 8.30875 82.13273437 7.4375 82.13671875 C6.633125 82.13542969 5.82875 82.13414062 5 82.1328125 C4.2575 82.13168457 3.515 82.13055664 2.75 82.12939453 C1 82 1 82 0 81 C-0.09504251 78.47458998 -0.12557158 75.97662874 -0.11352539 73.45092773 C-0.11367142 72.66074249 -0.11381744 71.87055725 -0.1139679 71.056427 C-0.11326857 68.43212178 -0.10547527 65.80788664 -0.09765625 63.18359375 C-0.09579214 61.36898335 -0.0943682 59.55437244 -0.09336853 57.73976135 C-0.08954279 52.9540977 -0.07971204 48.1684642 -0.06866455 43.3828125 C-0.05845163 38.50325936 -0.05387117 33.62370136 -0.04882812 28.74414062 C-0.03808981 19.16274501 -0.02049257 9.58137972 0 0 Z " fill="#FEFEFE" transform="translate(639,169)"/>
<path d="M0 0 C1 3 1 3 -0.43359375 6.13671875 C-1.09135973 7.3260128 -1.75977815 8.50946371 -2.4375 9.6875 C-2.77587891 10.29400391 -3.11425781 10.90050781 -3.46289062 11.52539062 C-4.29957915 13.0220025 -5.14862831 14.51169189 -6 16 C-9.25068403 15.4213442 -12.1295645 14.60276397 -15.1875 13.375 C-20.3023394 11.59255597 -24.73817159 12.08824268 -30 13 C-30.33 15.31 -30.66 17.62 -31 20 C-26.17730677 23.18297753 -21.36129825 25.79762887 -16.125 28.25 C-8.97189271 31.68372157 -2.30933401 36.16087952 2.2421875 42.81640625 C4.40995603 49.06270837 4.17769182 58.50585283 1.4375 64.5625 C-2.46564087 70.90682791 -8.96526519 75.71875924 -16.1796875 77.5546875 C-30.63137452 79.83653282 -44.48235202 77.87994575 -56.48828125 69.171875 C-56.98714844 68.78515625 -57.48601562 68.3984375 -58 68 C-57.39282831 63.94231599 -56.07940719 60.84766498 -54.125 57.25 C-53.61195313 56.28578125 -53.09890625 55.3215625 -52.5703125 54.328125 C-51 52 -51 52 -48 51 C-45.6953125 52.14453125 -45.6953125 52.14453125 -43.125 53.8125 C-38.1075569 57.04238309 -34.00221397 59.28437922 -27.9375 59.3125 C-27.10089844 59.32925781 -26.26429688 59.34601563 -25.40234375 59.36328125 C-22.47751449 58.92099 -21.12200044 58.0357792 -19 56 C-18.16600125 53.08681086 -18.16600125 53.08681086 -19 50 C-23.24382091 45.91287402 -27.68729596 43.45662631 -33 41 C-39.87309125 37.82184126 -46.63604131 34.31025279 -50.3046875 27.28125 C-52.37868033 20.47668924 -52.1888987 12.51418633 -49 6.125 C-48.34 5.09375 -47.68 4.0625 -47 3 C-46.34 3 -45.68 3 -45 3 C-44.67 2.01 -44.34 1.02 -44 0 C-30.8584109 -10.80174519 -13.76916522 -8.15950531 0 0 Z " fill="#FFFFFF" transform="translate(487,174)"/>
<path d="M0 0 C6.6752034 -0.02526945 13.35039457 -0.04283268 20.02563477 -0.05493164 C22.29842591 -0.05997325 24.5712138 -0.06680637 26.84399414 -0.07543945 C30.10303551 -0.08751261 33.36203417 -0.09322987 36.62109375 -0.09765625 C37.64400009 -0.10281754 38.66690643 -0.10797882 39.72080994 -0.11329651 C40.66170975 -0.11337204 41.60260956 -0.11344757 42.57202148 -0.11352539 C43.40475082 -0.115746 44.23748016 -0.11796661 45.09544373 -0.12025452 C47 0 47 0 48 1 C48.09975032 3.51136104 48.13882183 5.98903415 48.125 8.5 C48.13080078 9.55380859 48.13080078 9.55380859 48.13671875 10.62890625 C48.12661378 15.87338622 48.12661378 15.87338622 47 17 C45.00217874 17.15825258 42.99911166 17.25119171 40.99609375 17.31640625 C39.78115234 17.35830078 38.56621094 17.40019531 37.31445312 17.44335938 C36.03505859 17.48267578 34.75566406 17.52199219 33.4375 17.5625 C32.15423828 17.60568359 30.87097656 17.64886719 29.54882812 17.69335938 C26.36602555 17.79984719 23.18302757 17.90046421 20 18 C20 22.29 20 26.58 20 31 C28.25 31.33 36.5 31.66 45 32 C46 37 46 37 45 49 C36.42 49 27.84 49 19 49 C19.01160156 51.29839844 19.02320313 53.59679687 19.03515625 55.96484375 C19.04294709 58.18220888 19.04902369 60.39957251 19.05493164 62.61694336 C19.0599714 64.16219766 19.0668032 65.70744716 19.07543945 67.25268555 C19.08752076 69.46925029 19.09323173 71.68575218 19.09765625 73.90234375 C19.10281754 74.5971434 19.10797882 75.29194305 19.11329651 76.00779724 C19.11349277 77.6722933 19.06189129 79.33665499 19 81 C17.4779041 82.5220959 16.11789918 82.12959521 14 82.1328125 C13.195625 82.13410156 12.39125 82.13539063 11.5625 82.13671875 C10.716875 82.13285156 9.87125 82.12898438 9 82.125 C8.154375 82.12886719 7.30875 82.13273437 6.4375 82.13671875 C5.633125 82.13542969 4.82875 82.13414062 4 82.1328125 C3.2575 82.13168457 2.515 82.13055664 1.75 82.12939453 C0 82 0 82 -1 81 C-1.06506204 78.47365527 -1.06509817 75.97623577 -1.02172852 73.45092773 C-1.01212097 72.66074249 -1.00251343 71.87055725 -0.99261475 71.056427 C-0.9595072 68.43206191 -0.91922003 65.80785725 -0.87890625 63.18359375 C-0.8546166 61.36898879 -0.83077248 59.55437781 -0.80735779 57.73976135 C-0.74440182 52.95404226 -0.67536802 48.16842911 -0.60510254 43.3828125 C-0.53452278 38.50330445 -0.46964393 33.62372106 -0.40429688 28.74414062 C-0.27513625 19.16267761 -0.13955988 9.58131678 0 0 Z " fill="#FFFFFF" transform="translate(236,169)"/>
<path d="M0 0 C19.14 0 38.28 0 58 0 C58 5.61 58 11.22 58 17 C51.73 17 45.46 17 39 17 C39.00523682 18.93351318 39.01047363 20.86702637 39.01586914 22.85913086 C39.03196655 29.23337702 39.04347217 35.60761838 39.05181217 41.98187923 C39.05704026 45.84820118 39.06413654 49.71450121 39.07543945 53.58081055 C39.086271 57.30903401 39.0922774 61.03723634 39.09487724 64.76547432 C39.09673101 66.19089656 39.10035071 67.61631759 39.10573006 69.04173088 C39.11294393 71.03163408 39.11340808 73.02155834 39.11352539 75.01147461 C39.115746 76.14620712 39.11796661 77.28093964 39.12025452 78.45005798 C39 81 39 81 38 82 C36.58429877 82.08651611 35.164405 82.10704904 33.74609375 82.09765625 C32.89208984 82.09443359 32.03808594 82.09121094 31.15820312 82.08789062 C30.26037109 82.07951172 29.36253906 82.07113281 28.4375 82.0625 C27.53580078 82.05798828 26.63410156 82.05347656 25.70507812 82.04882812 C23.46998686 82.03700225 21.23502563 82.0205222 19 82 C17.62667306 79.25334611 17.88035108 77.06375932 17.88647461 73.98974609 C17.88655014 72.72858978 17.88662567 71.46743347 17.88670349 70.1680603 C17.89181051 68.78651897 17.89702651 67.40497804 17.90234375 66.0234375 C17.90420856 64.6138209 17.90563217 63.20420366 17.90663147 61.79458618 C17.91045167 58.08246068 17.92027772 54.37037422 17.93133545 50.65826416 C17.94156025 46.87113981 17.94613138 43.08400917 17.95117188 39.296875 C17.96190043 31.86456346 17.97949321 24.43229217 18 17 C12.06 17 6.12 17 0 17 C-1 13 -1 13 0 0 Z " fill="#FEFEFE" transform="translate(719,169)"/>
<path d="M0 0 C6.6 0 13.2 0 20 0 C20.02255102 10.54381693 20.04091508 21.08761797 20.05181217 31.63145351 C20.057041 36.52685374 20.06413864 41.42223668 20.07543945 46.31762695 C20.08626834 51.03787978 20.09227684 55.75811592 20.09487724 60.4783802 C20.09673149 62.28338954 20.10035209 64.08839792 20.10573006 65.89340019 C20.11294052 68.41259644 20.11399094 70.9317229 20.11352539 73.45092773 C20.11712067 74.20474228 20.12071594 74.95855682 20.12442017 75.73521423 C20.11405216 80.88594784 20.11405216 80.88594784 19 82 C17.58429877 82.08651611 16.164405 82.10704904 14.74609375 82.09765625 C13.89208984 82.09443359 13.03808594 82.09121094 12.15820312 82.08789062 C11.26037109 82.07951172 10.36253906 82.07113281 9.4375 82.0625 C8.53580078 82.05798828 7.63410156 82.05347656 6.70507812 82.04882812 C4.46998686 82.03700225 2.23502563 82.0205222 0 82 C-1.04439191 77.76340389 -1.10163267 73.69701923 -1.02172852 69.36401367 C-1.01212097 68.61225861 -1.00251343 67.86050354 -0.99261475 67.08596802 C-0.95976188 64.61320217 -0.91937787 62.14062065 -0.87890625 59.66796875 C-0.85459171 57.94876241 -0.83074883 56.22954935 -0.80735779 54.5103302 C-0.74464956 49.99427602 -0.6755456 45.47834161 -0.60510254 40.96240234 C-0.53429906 36.35064122 -0.46955408 31.73879547 -0.40429688 27.12695312 C-0.27545552 18.08453979 -0.13929633 9.04225832 0 0 Z " fill="#FEFEFE" transform="translate(301,169)"/>
<path d="M0 0 C6.6 0 13.2 0 20 0 C20.02255102 10.54381693 20.04091508 21.08761797 20.05181217 31.63145351 C20.057041 36.52685374 20.06413864 41.42223668 20.07543945 46.31762695 C20.08626834 51.03787978 20.09227684 55.75811592 20.09487724 60.4783802 C20.09673149 62.28338954 20.10035209 64.08839792 20.10573006 65.89340019 C20.11294052 68.41259644 20.11399094 70.9317229 20.11352539 73.45092773 C20.11712067 74.20474228 20.12071594 74.95855682 20.12442017 75.73521423 C20.11405216 80.88594784 20.11405216 80.88594784 19 82 C17.58429877 82.08651611 16.164405 82.10704904 14.74609375 82.09765625 C13.89208984 82.09443359 13.03808594 82.09121094 12.15820312 82.08789062 C11.26037109 82.07951172 10.36253906 82.07113281 9.4375 82.0625 C8.53580078 82.05798828 7.63410156 82.05347656 6.70507812 82.04882812 C4.46998686 82.03700225 2.23502563 82.0205222 0 82 C-1.2546101 78.16525981 -1.09383963 74.3682613 -1.02172852 70.38574219 C-1.01212097 69.62437958 -1.00251343 68.86301697 -0.99261475 68.07858276 C-0.95969571 65.56791733 -0.9193365 63.05742978 -0.87890625 60.546875 C-0.85459819 58.803819 -0.83075498 57.06075646 -0.80735779 55.31768799 C-0.74458508 50.73421773 -0.67549916 46.15086354 -0.60510254 41.56750488 C-0.53435753 36.88880693 -0.46957748 32.21002682 -0.40429688 27.53125 C-0.27537233 18.35407388 -0.13922761 9.1770256 0 0 Z " fill="#FFFFFF" transform="translate(508,169)"/>
<path d="M0 0 C3.72510003 2.71621877 5.90289924 5.50188688 7 10 C6.69787987 13.70097165 6.12481203 16.91902255 4 20 C0.28239487 23.15433163 -3.13718665 23.5161294 -7.84765625 23.359375 C-11.08890775 22.818186 -12.78200098 21.3524232 -15 19 C-17.68121076 14.97818385 -17.81344335 11.72763609 -17 7 C-13.03863013 -0.11279423 -7.60088332 -1.06532065 0 0 Z " fill="#FFFFFF" transform="translate(791,229)"/>
</svg>
